<svg width="405" height="147" viewBox="0 0 405 147" fill="none" xmlns="http://www.w3.org/2000/svg">
<path d="M41.7256 83.221C41.8697 81.996 41.6371 80.9956 41.0278 80.2198C40.4503 79.4402 39.6332 78.8175 38.5766 78.3517C37.5519 77.8822 36.3945 77.5183 35.1044 77.2601C33.8431 76.9728 32.6182 76.7198 31.4297 76.501C28.8526 76.0099 26.2951 75.4138 23.7574 74.7125C21.2167 73.9859 18.8776 73.0554 16.7402 71.9212C14.6028 70.7869 12.8679 69.3736 11.5355 67.6813C10.235 65.9852 9.51742 63.8986 9.38278 61.4218C9.26941 58.5825 9.98298 56.0436 11.5235 53.8049C13.064 51.5662 15.1434 49.6491 17.7617 48.0536C20.4088 46.4289 23.3053 45.1345 26.4511 44.1703C29.6257 43.1769 32.7601 42.5225 35.8543 42.2069C40.2538 41.7365 44.2545 41.9815 47.8564 42.9421C51.4901 43.8989 54.4469 45.5399 56.7266 47.8651C59.0034 50.1651 60.325 53.118 60.6915 56.7238L44.5027 58.644C44.3967 57.2174 44.011 56.0167 43.3456 55.0419C42.709 54.038 41.7669 53.3146 40.5193 52.8714C39.2687 52.403 37.7027 52.2675 35.8213 52.4649C34.2583 52.6246 32.7225 53.0124 31.214 53.6282C29.7025 54.2187 28.4252 55.0127 27.3821 56.0102C26.339 57.0077 25.74 58.2095 25.5852 59.6156C25.4865 60.681 25.8025 61.5687 26.5332 62.2788C27.2608 62.9635 28.215 63.5185 29.3959 63.9438C30.5738 64.3438 31.7904 64.6621 33.0456 64.8987C34.3326 65.1315 35.4544 65.3326 36.411 65.5018C39.1155 65.9777 41.7252 66.6062 44.2402 67.3873C46.7839 68.1393 49.0639 69.1153 51.08 70.3153C53.128 71.5116 54.759 73.0014 55.9731 74.7849C57.216 76.5393 57.8904 78.6694 57.9962 81.1754C58.0838 84.0691 57.421 86.6277 56.0079 88.8513C54.5947 91.0749 52.6586 92.975 50.1994 94.5517C47.7403 96.1283 44.9856 97.3931 41.9353 98.346C38.885 99.2989 35.7506 99.9533 32.5321 100.309C28.9285 100.685 25.5183 100.653 22.3014 100.212C19.0815 99.746 16.2156 98.8652 13.7037 97.5697C11.1889 96.249 9.15686 94.5111 7.60776 92.3562C6.05563 90.1759 5.13118 87.5742 4.83439 84.5512L21.2187 82.6464C21.2929 84.0768 21.5542 85.3179 22.0028 86.3698C22.4803 87.3925 23.1608 88.2242 24.0446 88.8646C24.9572 89.476 26.0888 89.8943 27.4395 90.1196C28.7872 90.3195 30.3843 90.31 32.2308 90.091C33.7908 89.9059 35.2644 89.5384 36.6516 88.9884C38.0676 88.4092 39.235 87.6411 40.1538 86.6841C41.0726 85.727 41.5965 84.5726 41.7256 83.221Z" fill="white"/>
<path d="M94.7112 50.4144L93.8164 59.541L63.54 63.1321L64.4348 54.0054L94.7112 50.4144ZM71.7606 42.7667L87.4719 40.9032L83.8017 79.8879C83.7803 80.79 83.8682 81.5248 84.0652 82.0926C84.2592 82.6349 84.645 83.0261 85.2225 83.266C85.8289 83.4767 86.7241 83.5376 87.9081 83.4486C88.5797 83.3946 89.2467 83.3026 89.9092 83.1727C90.5717 83.0427 91.2343 82.9127 91.8968 82.7827L91.907 92.1876C90.5805 92.7047 89.21 93.1243 87.7955 93.4462C86.4129 93.7644 84.9893 94.0104 83.5249 94.1841C80.2715 94.5185 77.4874 94.3219 75.1726 93.5942C72.8865 92.8374 71.1395 91.5925 69.9314 89.8598C68.7522 88.0979 68.1513 85.9076 68.1289 83.2889L71.7606 42.7667Z" fill="white"/>
<path d="M123.988 78.1669L125.286 60.6657C125.304 59.7383 125.184 58.866 124.925 58.0486C124.698 57.2275 124.218 56.5905 123.486 56.1376C122.782 55.6557 121.745 55.4832 120.373 55.6202C119.128 55.7422 118.099 56.0442 117.284 56.5262C116.47 57.0083 115.849 57.6216 115.422 58.3662C114.994 59.1108 114.722 59.9398 114.605 60.8531L98.8552 62.7983C98.6978 60.4012 99.2484 58.2543 100.507 56.3574C101.765 54.4606 103.476 52.8314 105.638 51.4699C107.8 50.1084 110.203 49.0137 112.849 48.186C115.526 47.3544 118.189 46.8073 120.838 46.5445C124.473 46.1647 127.825 46.384 130.893 47.2022C133.99 47.9914 136.465 49.3812 138.317 51.3716C140.198 53.333 141.133 55.8821 141.12 59.0189L139.747 76.2977C139.642 77.8521 139.581 79.5041 139.564 81.2537C139.545 82.9779 140.052 84.5239 141.087 85.8917L141.126 86.6196L125.801 88.4758C124.904 86.9117 124.349 85.2428 124.137 83.469C123.925 81.6951 123.876 79.9278 123.988 78.1669ZM127.33 62.7747L126.715 69.7865L120.551 70.4792C119.344 70.648 118.201 70.9506 117.124 71.3868C116.074 71.794 115.152 72.3146 114.356 72.9487C113.56 73.5828 112.922 74.3266 112.443 75.1801C111.996 76.0299 111.753 76.971 111.715 78.0035C111.67 78.7028 111.808 79.316 112.129 79.8433C112.479 80.3415 112.96 80.7213 113.573 80.9828C114.217 81.2404 114.986 81.3291 115.881 81.2487C117.253 81.1117 118.55 80.7522 119.772 80.1704C120.994 79.5886 122.019 78.8501 122.849 77.9551C123.71 77.0562 124.253 76.0666 124.479 74.9861L127.89 80.017C127.22 81.4329 126.408 82.7499 125.456 83.9679C124.536 85.1821 123.456 86.274 122.215 87.2435C121.004 88.1838 119.612 88.9657 118.04 89.5891C116.468 90.2125 114.693 90.6285 112.717 90.8373C109.877 91.1227 107.201 90.8875 104.689 90.1318C102.177 89.376 100.114 88.1816 98.4977 86.5486C96.8819 84.9156 95.9808 82.9151 95.7946 80.5471C95.5949 77.7953 96.1674 75.4272 97.5123 73.4431C98.8573 71.4589 100.711 69.8127 103.073 68.5045C105.464 67.1673 108.098 66.1096 110.975 65.3314C113.885 64.5494 116.788 63.9866 119.685 63.643L127.33 62.7747Z" fill="white"/>
<path d="M165.803 51.581L162.663 84.065L146.952 85.9285L151.014 43.7363L165.674 41.9974L165.803 51.581ZM163.046 61.7381L159.817 62.2753C159.809 59.7833 160.155 57.2752 160.854 54.7508C161.55 52.201 162.657 49.8467 164.175 47.6878C165.725 45.5252 167.738 43.7315 170.216 42.3069C172.722 40.8532 175.761 39.9402 179.332 39.5679C182.239 39.3003 184.669 39.5132 186.625 40.2064C188.612 40.8959 190.19 41.9423 191.359 43.3456C192.525 44.7237 193.348 46.3478 193.83 48.2181C194.341 50.0593 194.589 51.996 194.573 54.0281L192.223 80.5589L176.417 82.4338L178.801 55.7832C178.817 54.5733 178.644 53.5274 178.28 52.6453C177.948 51.7595 177.322 51.1142 176.402 50.7093C175.514 50.3007 174.24 50.1819 172.582 50.3529C170.732 50.5466 169.206 51.0104 168.002 51.7442C166.83 52.4743 165.891 53.3953 165.184 54.5071C164.506 55.5897 164.001 56.7676 163.669 58.0405C163.366 59.2844 163.158 60.5169 163.046 61.7381Z" fill="white"/>
<path d="M230.647 65.7089L235.387 16.2275L251.193 14.3526L245.47 74.2434L231.382 75.9143L230.647 65.7089ZM200.94 59.4794L200.935 58.6318C201.017 56.0778 201.431 53.4588 202.176 50.7749C202.92 48.0909 204.074 45.5896 205.637 43.2712C207.233 40.9489 209.309 39.0064 211.867 37.4438C214.456 35.8774 217.635 34.9221 221.404 34.5778C224.6 34.3016 227.301 34.7522 229.508 35.9295C231.716 37.1069 233.507 38.7192 234.881 40.7663C236.253 42.7881 237.288 44.9654 237.987 47.2983C238.685 49.6312 239.123 51.8024 239.298 53.8118L239.278 54.8551C239.058 57.0656 238.504 59.4571 237.617 62.0295C236.758 64.5728 235.517 67.0201 233.893 69.3715C232.298 71.6937 230.306 73.6648 227.917 75.2845C225.524 76.879 222.716 77.8289 219.491 78.1343C215.98 78.4736 213.035 78.1419 210.655 77.1393C208.275 76.1366 206.358 74.6933 204.906 72.8096C203.486 70.9221 202.458 68.8081 201.824 66.4677C201.22 64.1234 200.926 61.794 200.94 59.4794ZM216.69 56.7247L216.69 57.5342C216.703 58.4578 216.749 59.5189 216.828 60.7174C216.907 61.916 217.126 63.0722 217.485 64.186C217.876 65.2962 218.516 66.1968 219.406 66.8879C220.325 67.55 221.6 67.8227 223.233 67.7061C225.598 67.5027 227.471 66.8308 228.852 65.6904C230.265 64.5462 231.281 63.1794 231.898 61.5899C232.544 59.9713 232.883 58.3506 232.915 56.7277L232.981 53.6359C233.016 52.578 232.964 51.4663 232.825 50.3006C232.717 49.1312 232.426 48.0478 231.952 47.0504C231.477 46.053 230.738 45.2669 229.733 44.6922C228.728 44.1175 227.348 43.9214 225.594 44.1037C223.741 44.2721 222.222 44.7992 221.037 45.6851C219.883 46.5672 218.995 47.6491 218.373 48.9307C217.781 50.1832 217.357 51.5056 217.104 52.8977C216.88 54.2607 216.741 55.5364 216.69 56.7247Z" fill="white"/>
<path d="M297.019 12.0012L313.351 10.0641L309.932 47.0916C309.673 51.4141 308.371 55.2436 306.026 58.58C303.712 61.9127 300.532 64.6157 296.485 66.689C292.439 68.7624 287.738 70.0909 282.384 70.6746C277.408 71.1876 272.961 70.8542 269.042 69.6742C265.156 68.4904 262.112 66.5257 259.911 63.7799C257.71 61.034 256.668 57.5854 256.785 53.4338L260.201 16.3683L276.58 14.4255L273.217 51.5234C273.163 53.2261 273.365 54.7826 273.824 56.193C274.315 57.5996 275.22 58.6873 276.539 59.4561C277.858 60.2249 279.73 60.4911 282.155 60.2548C284.743 60.025 286.847 59.39 288.466 58.3498C290.117 57.3059 291.347 55.9779 292.155 54.3657C292.995 52.7498 293.478 50.9835 293.604 49.0668L297.019 12.0012Z" fill="white"/>
<path d="M347.669 43.1168L329.995 45.1745L331.008 34.6074L347.011 32.7479C349.08 32.5025 350.939 31.9864 352.589 31.1997C354.235 30.3876 355.548 29.3453 356.526 28.0728C357.504 26.8004 358.05 25.2963 358.166 23.5608C358.286 22.1331 358.082 20.8337 357.554 19.6627C357.027 18.4917 356.159 17.5795 354.951 16.9261C353.743 16.2727 352.163 16.0232 350.212 16.1775L338.794 17.4932L334.341 63.7024L318.009 65.6396L323.428 8.86894L349.506 5.81433C354.068 5.35037 358.237 5.65258 362.013 6.72096C365.789 7.78934 368.826 9.56218 371.124 12.0395C373.422 14.5168 374.607 17.6786 374.68 21.525C374.756 25.6792 373.523 29.2693 370.979 32.2952C368.466 35.3173 365.14 37.7421 360.999 39.5696C356.888 41.368 352.444 42.5503 347.669 43.1168Z" fill="white"/>
<path d="M77.3774 117.504L77.1638 119.916L64.8224 121.448L63.1592 141.256L59.7703 141.676L61.6289 119.458L77.3774 117.504ZM63.4568 128.186L70.2184 127.362C71.7565 127.202 73.1479 127.291 74.3927 127.629C75.6495 127.967 76.6491 128.552 77.3914 129.387C78.1459 130.219 78.5337 131.309 78.5548 132.655C78.5825 133.759 78.3639 134.758 77.899 135.651C77.4461 136.543 76.8014 137.323 75.9647 137.99C75.1401 138.656 74.1773 139.199 73.0764 139.617C71.9875 140.034 70.8142 140.316 69.5564 140.462L59.7703 141.676L61.6289 119.458L65.054 119.033L63.3746 138.858L69.3569 138.131C70.4322 137.997 71.4018 137.706 72.2657 137.256C73.1418 136.805 73.8361 136.226 74.3488 135.518C74.8602 134.8 75.1313 133.976 75.1622 133.046C75.1826 132.228 74.9943 131.557 74.5974 131.032C74.2126 130.506 73.6633 130.136 72.9496 129.923C72.2345 129.699 71.398 129.632 70.4398 129.721L63.2433 130.599L63.4568 128.186Z" fill="white"/>
<path d="M103.419 124.57L103.371 125.951C103.296 127.309 103.023 128.657 102.552 129.994C102.093 131.329 101.419 132.561 100.529 133.688C99.6398 134.815 98.5242 135.754 97.1826 136.504C95.8409 137.255 94.2561 137.728 92.428 137.925C90.6846 138.111 89.1884 137.97 87.9396 137.501C86.7016 137.02 85.6932 136.315 84.9143 135.384C84.1475 134.453 83.5851 133.39 83.2272 132.196C82.8814 131.001 82.7282 129.776 82.7678 128.523L82.8341 127.14C82.8975 125.784 83.1652 124.442 83.6372 123.114C84.12 121.776 84.8063 120.543 85.6959 119.416C86.5976 118.287 87.7192 117.348 89.0609 116.597C90.4013 115.837 91.9734 115.36 93.7773 115.166C95.545 114.977 97.0471 115.118 98.2839 115.588C99.5327 116.057 100.54 116.758 101.307 117.69C102.074 118.621 102.624 119.686 102.958 120.883C103.304 122.078 103.458 123.307 103.419 124.57ZM99.9842 126.386L100.043 124.944C100.071 124.085 100.009 123.202 99.8588 122.294C99.7085 121.387 99.4146 120.557 98.9771 119.806C98.5504 119.044 97.931 118.456 97.1187 118.043C96.3063 117.631 95.2393 117.486 93.9174 117.61C92.5726 117.747 91.4219 118.111 90.4653 118.703C89.5075 119.285 88.7218 120.017 88.1082 120.898C87.5054 121.769 87.0521 122.706 86.7483 123.71C86.4445 124.714 86.2675 125.703 86.2174 126.675L86.1586 128.117C86.1286 128.956 86.1894 129.835 86.3409 130.752C86.5034 131.658 86.8039 132.492 87.2427 133.253C87.6814 134.014 88.3081 134.611 89.1229 135.043C89.9365 135.466 90.9921 135.617 92.2898 135.496C93.6708 135.355 94.8403 134.993 95.7981 134.411C96.7547 133.819 97.5283 133.089 98.119 132.22C98.7218 131.35 99.1684 130.409 99.4589 129.396C99.7615 128.382 99.9366 127.379 99.9842 126.386Z" fill="white"/>
<path d="M125.293 111.556L125.08 113.969L113.355 115.424L113.568 113.012L125.293 111.556ZM128.211 111.194L126.352 133.412L122.927 133.838L124.804 111.617L128.211 111.194ZM112.426 113.153L115.815 112.733L114.333 123.684C114.207 124.646 114.07 125.66 113.922 126.725C113.773 127.791 113.541 128.836 113.228 129.862C112.925 130.876 112.479 131.817 111.888 132.686C111.308 133.543 110.533 134.263 109.564 134.847C108.604 135.419 107.393 135.786 105.928 135.947L104.914 136.073L104.948 133.698L105.596 133.588C106.652 133.396 107.504 133.044 108.151 132.53C108.809 132.006 109.32 131.379 109.683 130.649C110.045 129.919 110.31 129.142 110.476 128.316C110.643 127.489 110.761 126.669 110.831 125.855C110.901 125.041 110.973 124.292 111.047 123.609L112.426 113.153Z" fill="white"/>
<path d="M136.056 119.176L142.817 118.352C144.355 118.191 145.747 118.28 146.992 118.619C148.248 118.956 149.248 119.542 149.99 120.376C150.745 121.208 151.133 122.298 151.154 123.644C151.181 124.748 150.963 125.747 150.498 126.64C150.045 127.532 149.4 128.312 148.564 128.979C147.739 129.646 146.776 130.188 145.675 130.606C144.586 131.023 143.413 131.305 142.155 131.451L132.369 132.666L134.228 110.447L137.653 110.022L135.973 129.847L141.956 129.12C143.031 128.987 144.001 128.695 144.865 128.246C145.741 127.795 146.435 127.215 146.948 126.507C147.459 125.789 147.73 124.965 147.761 124.035C147.781 123.217 147.593 122.546 147.196 122.021C146.812 121.495 146.262 121.125 145.548 120.912C144.833 120.689 143.997 120.621 143.039 120.71L135.842 121.588L136.056 119.176Z" fill="white"/>
<path d="M157.044 107.616L160.469 107.19L158.808 127.013L167.579 125.925L169.24 106.102L172.648 105.679L170.968 125.504L179.685 124.422L181.346 104.599L184.772 104.174L182.895 126.395L155.167 129.836L157.044 107.616Z" fill="white"/>
<path d="M209.617 111.389L209.569 112.77C209.494 114.128 209.221 115.476 208.75 116.813C208.291 118.148 207.617 119.38 206.728 120.507C205.838 121.634 204.722 122.573 203.381 123.323C202.039 124.074 200.454 124.547 198.626 124.744C196.883 124.93 195.386 124.789 194.138 124.32C192.9 123.839 191.891 123.134 191.112 122.203C190.346 121.272 189.783 120.209 189.425 119.015C189.079 117.82 188.926 116.595 188.966 115.342L189.032 113.96C189.096 112.603 189.363 111.261 189.835 109.934C190.318 108.595 191.004 107.362 191.894 106.235C192.796 105.106 193.917 104.167 195.259 103.416C196.599 102.656 198.171 102.179 199.975 101.985C201.743 101.796 203.245 101.937 204.482 102.407C205.731 102.877 206.739 103.577 207.505 104.509C208.272 105.44 208.822 106.505 209.156 107.702C209.502 108.897 209.656 110.126 209.617 111.389ZM206.182 113.205L206.241 111.763C206.269 110.904 206.207 110.021 206.057 109.113C205.907 108.206 205.613 107.376 205.175 106.625C204.748 105.863 204.129 105.275 203.317 104.862C202.504 104.45 201.437 104.305 200.115 104.429C198.771 104.566 197.62 104.93 196.663 105.522C195.706 106.104 194.92 106.836 194.306 107.717C193.703 108.588 193.25 109.525 192.946 110.529C192.643 111.533 192.466 112.522 192.415 113.494L192.357 114.936C192.327 115.776 192.387 116.654 192.539 117.571C192.701 118.478 193.002 119.311 193.441 120.072C193.879 120.833 194.506 121.43 195.321 121.862C196.135 122.285 197.19 122.436 198.488 122.315C199.869 122.174 201.038 121.812 201.996 121.23C202.953 120.638 203.726 119.908 204.317 119.039C204.92 118.169 205.366 117.228 205.657 116.215C205.96 115.201 206.135 114.198 206.182 113.205Z" fill="white"/>
<path d="M231.491 98.3755L231.278 100.788L218.955 102.317L217.291 122.125L213.884 122.548L215.761 100.328L231.491 98.3755Z" fill="white"/>
<path d="M253.22 105.978L253.172 107.358C253.097 108.716 252.824 110.064 252.353 111.401C251.894 112.737 251.22 113.968 250.33 115.095C249.441 116.222 248.325 117.161 246.983 117.912C245.642 118.662 244.057 119.136 242.229 119.332C240.485 119.519 238.989 119.377 237.74 118.908C236.503 118.427 235.494 117.722 234.715 116.792C233.948 115.86 233.386 114.797 233.028 113.603C232.682 112.408 232.529 111.183 232.569 109.93L232.635 108.548C232.698 107.191 232.966 105.849 233.438 104.522C233.921 103.183 234.607 101.95 235.497 100.823C236.398 99.6944 237.52 98.7548 238.862 98.0043C240.202 97.244 241.774 96.767 243.578 96.5733C245.346 96.3841 246.848 96.5248 248.085 96.9955C249.334 97.4647 250.341 98.1652 251.108 99.0969C251.875 100.029 252.425 101.093 252.759 102.29C253.105 103.485 253.259 104.714 253.22 105.978ZM249.785 107.793L249.844 106.351C249.871 105.492 249.81 104.609 249.66 103.701C249.509 102.794 249.215 101.964 248.778 101.213C248.351 100.451 247.732 99.8633 246.92 99.4506C246.107 99.038 245.04 98.8936 243.718 99.0174C242.373 99.1541 241.223 99.5184 240.266 100.11C239.308 100.692 238.523 101.424 237.909 102.306C237.306 103.176 236.853 104.113 236.549 105.117C236.245 106.121 236.068 107.11 236.018 108.082L235.959 109.524C235.929 110.364 235.99 111.242 236.142 112.16C236.304 113.066 236.605 113.899 237.044 114.66C237.482 115.421 238.109 116.018 238.924 116.45C239.737 116.873 240.793 117.024 242.091 116.903C243.472 116.762 244.641 116.4 245.599 115.818C246.556 115.226 247.329 114.496 247.92 113.627C248.523 112.757 248.969 111.816 249.26 110.803C249.562 109.789 249.737 108.786 249.785 107.793Z" fill="white"/>
<path d="M284.228 91.83L284.014 94.2425L271.691 95.772L270.028 115.58L266.621 116.003L268.498 93.7824L284.228 91.83Z" fill="white"/>
<path d="M305.957 99.4322L305.909 100.812C305.833 102.171 305.56 103.519 305.089 104.856C304.631 106.191 303.957 107.422 303.067 108.55C302.177 109.677 301.062 110.616 299.72 111.366C298.378 112.117 296.794 112.59 294.965 112.787C293.222 112.973 291.726 112.832 290.477 112.362C289.239 111.882 288.231 111.176 287.452 110.246C286.685 109.314 286.123 108.252 285.765 107.058C285.419 105.862 285.266 104.638 285.305 103.385L285.372 102.002C285.435 100.645 285.703 99.3033 286.175 97.9762C286.657 96.6377 287.344 95.4049 288.233 94.2776C289.135 93.1489 290.257 92.2093 291.598 91.4589C292.939 90.6985 294.511 90.2215 296.315 90.0278C298.082 89.8386 299.585 89.9794 300.821 90.45C302.07 90.9192 303.078 91.6197 303.845 92.5514C304.612 93.4831 305.162 94.5474 305.496 95.7443C305.841 96.9397 305.995 98.169 305.957 99.4322ZM302.522 101.248L302.581 99.8059C302.608 98.9468 302.547 98.0634 302.396 97.1559C302.246 96.2483 301.952 95.419 301.515 94.6679C301.088 93.9054 300.468 93.3178 299.656 92.9052C298.844 92.4925 297.777 92.3481 296.455 92.4719C295.11 92.6086 293.959 92.9729 293.003 93.5648C292.045 94.1468 291.259 94.8786 290.646 95.7602C290.043 96.6303 289.59 97.5675 289.286 98.5717C288.982 99.5759 288.805 100.564 288.755 101.537L288.696 102.979C288.666 103.818 288.727 104.697 288.878 105.614C289.041 106.52 289.341 107.354 289.78 108.115C290.219 108.876 290.846 109.473 291.66 109.905C292.474 110.328 293.53 110.478 294.827 110.358C296.208 110.216 297.378 109.855 298.336 109.273C299.292 108.681 300.066 107.951 300.656 107.082C301.259 106.212 301.706 105.27 301.996 104.258C302.299 103.244 302.474 102.24 302.522 101.248Z" fill="white"/>
<path d="M320.472 100.711L313.402 101.574L313.618 99.176L320.27 98.3654C321.406 98.2244 322.425 97.9369 323.328 97.5027C324.243 97.067 324.969 96.4936 325.505 95.7827C326.054 95.0702 326.34 94.2143 326.362 93.2148C326.39 92.3557 326.196 91.6447 325.782 91.082C325.379 90.5078 324.8 90.0965 324.045 89.8479C323.29 89.5993 322.404 89.5231 321.385 89.6193L315.149 90.3782L313.486 110.186L310.061 110.611L311.937 88.3908L321.182 87.2585C322.756 87.0933 324.186 87.1928 325.47 87.5568C326.766 87.9095 327.799 88.5211 328.571 89.3919C329.342 90.2626 329.74 91.3861 329.765 92.7622C329.799 94.3084 329.401 95.6364 328.571 96.7463C327.752 97.8546 326.63 98.7389 325.203 99.3992C323.789 100.058 322.212 100.495 320.472 100.711Z" fill="white"/>
<path d="M353.474 93.5345L353.426 94.9147C353.35 96.2731 353.077 97.6208 352.607 98.9578C352.148 100.293 351.474 101.525 350.584 102.652C349.695 103.779 348.579 104.718 347.237 105.468C345.896 106.219 344.311 106.692 342.483 106.889C340.739 107.075 339.243 106.934 337.994 106.465C336.756 105.984 335.748 105.279 334.969 104.348C334.202 103.417 333.64 102.354 333.282 101.16C332.936 99.9647 332.783 98.7403 332.823 97.487L332.889 96.1046C332.952 94.7477 333.22 93.4057 333.692 92.0786C334.175 90.7401 334.861 89.5072 335.751 88.3799C336.652 87.2512 337.774 86.3116 339.116 85.5612C340.456 84.8008 342.028 84.3238 343.832 84.1301C345.6 83.9409 347.102 84.0817 348.339 84.5524C349.587 85.0216 350.595 85.722 351.362 86.6537C352.129 87.5854 352.679 88.6497 353.013 89.8466C353.359 91.042 353.512 92.2713 353.474 93.5345ZM350.039 95.3502L350.098 93.9083C350.125 93.0491 350.064 92.1658 349.914 91.2582C349.763 90.3506 349.469 89.5213 349.032 88.7702C348.605 88.0077 347.986 87.4201 347.173 87.0075C346.361 86.5949 345.294 86.4505 343.972 86.5742C342.627 86.711 341.477 87.0753 340.52 87.6672C339.562 88.2492 338.777 88.9809 338.163 89.8625C337.56 90.7326 337.107 91.6698 336.803 92.674C336.499 93.6782 336.322 94.6666 336.272 95.6394L336.213 97.0813C336.183 97.9206 336.244 98.799 336.396 99.7165C336.558 100.623 336.859 101.456 337.297 102.217C337.736 102.978 338.363 103.575 339.178 104.007C339.991 104.43 341.047 104.581 342.345 104.46C343.726 104.319 344.895 103.957 345.853 103.375C346.809 102.783 347.583 102.053 348.174 101.184C348.776 100.314 349.223 99.3728 349.514 98.3602C349.816 97.346 349.991 96.3427 350.039 95.3502Z" fill="white"/>
<path d="M377.329 99.8912L377.114 102.289L357.723 104.696L357.938 102.298L377.329 99.8912ZM358.5 102.228L357.827 110.089L354.456 110.507L355.093 102.651L358.5 102.228ZM380.283 99.5246L379.59 107.373L376.201 107.793L376.858 99.9497L380.283 99.5246ZM375.674 80.48L375.461 82.8925L364.225 84.2871L364.438 81.8746L375.674 80.48ZM378.592 80.1179L376.715 102.338L373.308 102.761L375.185 80.5407L378.592 80.1179ZM363.26 82.0208L366.722 81.5912L365.4 90.5895C365.318 91.2138 365.203 91.9629 365.055 92.8371C364.918 93.6998 364.726 94.6246 364.482 95.6114C364.237 96.5982 363.931 97.5825 363.563 98.5645C363.194 99.5365 362.737 100.449 362.194 101.302C361.65 102.154 361.005 102.884 360.259 103.49C359.512 104.086 358.648 104.49 357.668 104.702L355.892 104.923L355.999 102.539L357.108 102.431C357.943 101.653 358.648 100.81 359.222 99.9037C359.794 98.987 360.264 98.0376 360.632 97.0557C360.999 96.0638 361.284 95.0619 361.489 94.0499C361.705 93.0264 361.873 92.0189 361.994 91.0273L363.26 82.0208Z" fill="white"/>
<path d="M395.525 80.1304L385.432 101.256L381.79 101.709L393.434 78.2757L395.772 77.9855L395.525 80.1304ZM400.981 99.3265L394.125 79.9719L394.25 78.1745L396.425 77.9046L404.334 98.9104L400.981 99.3265ZM401.193 91.1606L400.979 93.5731L386.572 95.3613L386.786 92.9488L401.193 91.1606Z" fill="white"/>
</svg>
