<svg width="751" height="274" viewBox="0 0 751 274" fill="none" xmlns="http://www.w3.org/2000/svg">
<path d="M77.3723 155.12C77.6396 152.837 77.2083 150.972 76.0784 149.526C75.0075 148.073 73.4925 146.912 71.5332 146.044C69.633 145.169 67.4868 144.491 65.0945 144.01C62.7557 143.474 60.4844 143.002 58.2805 142.595C53.5017 141.679 48.7594 140.568 44.0537 139.261C39.3424 137.907 35.005 136.172 31.0415 134.058C27.0781 131.944 23.861 129.31 21.3904 126.155C18.9788 122.994 17.6482 119.105 17.3986 114.488C17.1884 109.196 18.5116 104.464 21.3682 100.291C24.2248 96.1181 28.0807 92.5447 32.9359 89.5707C37.8445 86.5425 43.2155 84.1297 49.0488 82.3325C54.9356 80.4809 60.7477 79.261 66.4853 78.6728C74.6434 77.7959 82.0619 78.2527 88.741 80.0431C95.4791 81.8264 100.962 84.8851 105.189 89.2192C109.411 93.5061 111.862 99.0101 112.541 105.731L82.5221 109.31C82.3256 106.651 81.6105 104.413 80.3766 102.596C79.1961 100.725 77.4492 99.3767 75.1357 98.5507C72.8166 97.6776 69.9127 97.425 66.424 97.7931C63.5257 98.0907 60.678 98.8135 57.8807 99.9613C55.0779 101.062 52.7093 102.542 50.775 104.401C48.8408 106.26 47.7301 108.501 47.443 111.122C47.2601 113.107 47.846 114.762 49.2008 116.085C50.55 117.362 52.3195 118.396 54.5093 119.189C56.6935 119.934 58.9493 120.528 61.2769 120.969C63.6635 121.403 65.7437 121.777 67.5175 122.093C72.5325 122.98 77.3717 124.151 82.0352 125.607C86.7522 127.009 90.9799 128.828 94.7185 131.065C98.5161 133.295 101.541 136.072 103.792 139.396C106.097 142.666 107.347 146.636 107.543 151.307C107.706 156.701 106.477 161.47 103.856 165.615C101.236 169.759 97.6455 173.301 93.0855 176.24C88.5255 179.179 83.4173 181.536 77.7611 183.312C72.1049 185.088 66.2927 186.308 60.3246 186.972C53.6424 187.673 47.3187 187.612 41.3536 186.791C35.3828 185.922 30.0686 184.28 25.4108 181.865C20.7474 179.404 16.9794 176.164 14.1069 172.148C11.2288 168.084 9.51457 163.235 8.96425 157.6L39.3461 154.049C39.4835 156.715 39.9682 159.029 40.8 160.989C41.6853 162.896 42.9473 164.446 44.5861 165.64C46.2783 166.779 48.3767 167.559 50.8814 167.979C53.3804 168.351 56.342 168.334 59.766 167.925C62.6587 167.581 65.3912 166.895 67.9635 165.87C70.5893 164.791 72.754 163.359 74.4578 161.575C76.1615 159.791 77.133 157.64 77.3723 155.12Z" fill="white"/>
<path d="M175.625 93.9706L173.966 110.982L117.823 117.676L119.483 100.664L175.625 93.9706ZM133.067 79.7161L162.201 76.2425L155.395 148.907C155.355 150.589 155.518 151.958 155.884 153.017C156.243 154.028 156.959 154.757 158.03 155.204C159.154 155.597 160.814 155.71 163.009 155.544C164.255 155.444 165.492 155.272 166.72 155.03C167.949 154.788 169.177 154.545 170.406 154.303L170.425 171.833C167.965 172.797 165.423 173.579 162.801 174.179C160.237 174.772 157.597 175.231 154.881 175.554C148.849 176.178 143.686 175.811 139.394 174.455C135.155 173.044 131.915 170.724 129.675 167.494C127.488 164.21 126.374 160.128 126.333 155.247L133.067 79.7161Z" fill="white"/>
<path d="M229.913 145.699L232.32 113.078C232.354 111.35 232.131 109.724 231.651 108.2C231.229 106.67 230.339 105.482 228.982 104.638C227.677 103.74 225.753 103.418 223.209 103.674C220.901 103.901 218.992 104.464 217.483 105.363C215.973 106.261 214.822 107.404 214.029 108.792C213.236 110.18 212.731 111.725 212.514 113.428L183.309 117.053C183.017 112.585 184.038 108.584 186.372 105.048C188.705 101.512 191.877 98.4757 195.886 95.938C199.895 93.4002 204.352 91.3598 209.258 89.8169C214.222 88.2669 219.16 87.2471 224.071 86.7573C230.813 86.0494 237.028 86.458 242.718 87.9831C248.461 89.454 253.049 92.0445 256.484 95.7546C259.972 99.4104 261.705 104.162 261.682 110.009L259.135 142.215C258.941 145.112 258.828 148.192 258.797 151.453C258.76 154.667 259.701 157.548 261.621 160.098L261.693 161.454L233.276 164.914C231.612 161.999 230.583 158.888 230.19 155.582C229.797 152.276 229.705 148.981 229.913 145.699ZM236.111 117.009L234.971 130.079L223.539 131.37C221.301 131.685 219.183 132.249 217.184 133.062C215.239 133.821 213.528 134.791 212.052 135.973C210.576 137.155 209.394 138.541 208.505 140.132C207.676 141.716 207.226 143.47 207.155 145.395C207.071 146.698 207.327 147.841 207.922 148.824C208.572 149.753 209.464 150.46 210.6 150.948C211.795 151.428 213.221 151.593 214.88 151.443C217.424 151.188 219.829 150.518 222.095 149.434C224.361 148.349 226.263 146.973 227.8 145.304C229.397 143.629 230.405 141.784 230.825 139.77L237.148 149.148C235.906 151.787 234.401 154.242 232.636 156.512C230.929 158.775 228.926 160.81 226.626 162.617C224.38 164.37 221.799 165.827 218.884 166.989C215.968 168.151 212.678 168.927 209.012 169.316C203.747 169.848 198.785 169.41 194.127 168.001C189.469 166.592 185.642 164.366 182.646 161.322C179.65 158.279 177.979 154.55 177.634 150.136C177.263 145.007 178.325 140.593 180.819 136.894C183.313 133.196 186.75 130.128 191.13 127.689C195.563 125.197 200.448 123.225 205.784 121.775C211.178 120.317 216.562 119.268 221.934 118.628L236.111 117.009Z" fill="white"/>
<path d="M307.452 96.1447L301.63 156.693L272.496 160.166L280.028 81.5228L307.213 78.2816L307.452 96.1447ZM302.339 115.077L296.351 116.078C296.337 111.433 296.979 106.758 298.275 102.053C299.566 97.3004 301.619 92.9121 304.433 88.8881C307.307 84.857 311.04 81.5138 315.634 78.8584C320.281 76.1487 325.916 74.4469 332.539 73.7531C337.928 73.2543 342.436 73.6509 346.062 74.9431C349.748 76.2282 352.674 78.1786 354.841 80.7943C357.002 83.3629 358.53 86.3902 359.423 89.8763C360.37 93.3082 360.829 96.918 360.801 100.706L356.443 150.157L327.133 153.652L331.553 103.977C331.585 101.722 331.263 99.7725 330.588 98.1284C329.973 96.4773 328.812 95.2745 327.106 94.5199C325.459 93.7582 323.097 93.5368 320.022 93.8555C316.592 94.2166 313.761 95.081 311.529 96.4489C309.356 97.8098 307.614 99.5263 306.304 101.599C305.047 103.617 304.111 105.812 303.495 108.185C302.932 110.503 302.547 112.801 302.339 115.077Z" fill="white"/>
<path d="M427.692 122.478L436.482 30.2477L465.793 26.753L455.179 138.385L429.056 141.5L427.692 122.478ZM372.606 110.867L372.598 109.287C372.751 104.526 373.517 99.6446 374.898 94.6418C376.279 89.6391 378.419 84.9769 381.318 80.6554C384.275 76.3269 388.126 72.7063 392.868 69.7936C397.67 66.8739 403.565 65.0932 410.554 64.4516C416.48 63.9367 421.489 64.7765 425.582 66.971C429.675 69.1656 432.996 72.1707 435.545 75.9863C438.089 79.7548 440.008 83.8132 441.304 88.1615C442.599 92.5099 443.41 96.5568 443.735 100.302L443.697 102.247C443.289 106.367 442.262 110.825 440.617 115.619C439.026 120.36 436.724 124.922 433.713 129.304C430.755 133.633 427.061 137.307 422.63 140.326C418.194 143.298 412.986 145.069 407.007 145.638C400.496 146.27 395.034 145.652 390.621 143.783C386.207 141.914 382.654 139.224 379.962 135.713C377.328 132.195 375.423 128.255 374.245 123.892C373.127 119.523 372.581 115.181 372.606 110.867ZM401.812 105.732L401.812 107.241C401.837 108.962 401.922 110.94 402.068 113.174C402.214 115.408 402.62 117.563 403.286 119.639C404.011 121.708 405.199 123.387 406.849 124.675C408.552 125.909 410.918 126.418 413.945 126.2C418.331 125.821 421.804 124.569 424.365 122.443C426.986 120.311 428.868 117.763 430.012 114.8C431.21 111.783 431.839 108.762 431.898 105.737L432.021 99.9744C432.086 98.0027 431.989 95.9305 431.731 93.7578C431.532 91.578 430.992 89.5586 430.113 87.6995C429.233 85.8404 427.861 84.3752 425.998 83.3041C424.134 82.2329 421.576 81.8673 418.323 82.2072C414.888 82.5209 412.071 83.5035 409.873 85.1547C407.733 86.799 406.087 88.8156 404.934 91.2044C403.835 93.539 403.05 96.0037 402.58 98.5985C402.164 101.139 401.908 103.517 401.812 105.732Z" fill="white"/>
<path d="M550.769 22.3698L581.054 18.7591L574.712 87.7759C574.233 95.8327 571.819 102.971 567.469 109.189C563.179 115.401 557.282 120.44 549.779 124.304C542.275 128.169 533.559 130.645 523.63 131.733C514.403 132.689 506.157 132.068 498.891 129.868C491.683 127.662 486.039 124 481.958 118.882C477.876 113.764 475.945 107.336 476.162 99.5976L482.495 30.51L512.869 26.8886L506.632 96.0366C506.531 99.2102 506.906 102.112 507.757 104.74C508.668 107.362 510.346 109.39 512.791 110.823C515.237 112.256 518.708 112.752 523.206 112.311C528.005 111.883 531.905 110.699 534.908 108.761C537.97 106.815 540.25 104.339 541.748 101.334C543.306 98.3225 544.202 95.0302 544.436 91.4575L550.769 22.3698Z" fill="white"/>
<path d="M644.689 80.3668L611.917 84.2023L613.795 64.5061L643.469 61.04C647.306 60.5825 650.754 59.6205 653.813 58.1541C656.866 56.6404 659.299 54.6977 661.112 52.3259C662.926 49.9541 663.94 47.1507 664.154 43.9157C664.376 41.2546 663.998 38.8326 663.02 36.6499C662.042 34.4672 660.433 32.767 658.193 31.5491C655.952 30.3312 653.023 29.8661 649.405 30.1538L628.233 32.6063L619.975 118.737L589.69 122.348L599.738 16.5313L648.096 10.8376C656.555 9.97277 664.286 10.536 671.288 12.5274C678.29 14.5188 683.922 17.8232 688.183 22.4407C692.444 27.0582 694.642 32.9516 694.776 40.121C694.918 47.8642 692.631 54.5558 687.913 60.1959C683.254 65.829 677.086 70.3487 669.408 73.755C661.784 77.1071 653.545 79.311 644.689 80.3668Z" fill="white"/>
<path d="M143.483 219.021L143.087 223.517L120.202 226.373L117.118 263.293L110.833 264.077L114.28 222.664L143.483 219.021ZM117.669 238.933L130.208 237.397C133.06 237.097 135.64 237.263 137.948 237.895C140.279 238.523 142.132 239.615 143.509 241.17C144.908 242.722 145.627 244.752 145.666 247.262C145.717 249.32 145.312 251.181 144.45 252.846C143.61 254.508 142.415 255.962 140.863 257.206C139.334 258.448 137.549 259.459 135.507 260.239C133.488 261.016 131.312 261.541 128.98 261.813L110.833 264.077L114.28 222.664L120.631 221.872L117.517 258.824L128.61 257.468C130.604 257.22 132.402 256.676 134.004 255.838C135.628 254.998 136.916 253.917 137.867 252.598C138.815 251.26 139.318 249.724 139.375 247.991C139.413 246.466 139.064 245.215 138.328 244.237C137.614 243.256 136.596 242.567 135.272 242.169C133.946 241.753 132.395 241.627 130.618 241.793L117.273 243.429L117.669 238.933Z" fill="white"/>
<path d="M191.773 232.193L191.684 234.765C191.544 237.297 191.037 239.809 190.164 242.301C189.314 244.791 188.064 247.086 186.414 249.187C184.764 251.288 182.696 253.038 180.208 254.437C177.72 255.836 174.781 256.718 171.391 257.085C168.158 257.432 165.384 257.168 163.068 256.294C160.773 255.398 158.903 254.083 157.459 252.349C156.037 250.613 154.994 248.632 154.33 246.406C153.689 244.178 153.405 241.896 153.478 239.56L153.601 236.983C153.719 234.454 154.215 231.953 155.09 229.479C155.986 226.984 157.258 224.686 158.908 222.585C160.58 220.481 162.66 218.73 165.148 217.331C167.633 215.914 170.548 215.025 173.893 214.664C177.171 214.311 179.957 214.573 182.25 215.451C184.566 216.325 186.434 217.631 187.856 219.367C189.278 221.104 190.299 223.088 190.918 225.319C191.559 227.547 191.844 229.838 191.773 232.193ZM185.403 235.577L185.512 232.889C185.563 231.288 185.449 229.642 185.17 227.95C184.892 226.258 184.347 224.712 183.535 223.312C182.744 221.891 181.596 220.796 180.089 220.027C178.583 219.258 176.604 218.989 174.153 219.219C171.659 219.474 169.526 220.153 167.752 221.256C165.976 222.341 164.519 223.705 163.381 225.348C162.263 226.97 161.423 228.717 160.859 230.589C160.296 232.461 159.968 234.303 159.875 236.116L159.766 238.804C159.71 240.368 159.823 242.005 160.104 243.716C160.405 245.404 160.962 246.958 161.776 248.376C162.59 249.795 163.752 250.907 165.263 251.713C166.771 252.501 168.729 252.782 171.135 252.557C173.696 252.294 175.864 251.62 177.641 250.535C179.414 249.432 180.849 248.071 181.944 246.451C183.062 244.83 183.89 243.075 184.429 241.187C184.99 239.297 185.315 237.427 185.403 235.577Z" fill="white"/>
<path d="M232.334 207.936L231.938 212.432L210.196 215.145L210.592 210.648L232.334 207.936ZM237.745 207.261L234.298 248.674L227.947 249.466L231.427 208.049L237.745 207.261ZM208.475 210.912L214.759 210.128L212.009 230.541C211.777 232.334 211.523 234.223 211.247 236.209C210.971 238.195 210.542 240.144 209.961 242.055C209.4 243.946 208.572 245.7 207.477 247.319C206.401 248.917 204.965 250.26 203.166 251.347C201.388 252.414 199.141 253.097 196.425 253.399L194.543 253.634L194.607 249.206L195.81 249C197.767 248.643 199.347 247.986 200.547 247.03C201.768 246.052 202.714 244.883 203.387 243.523C204.059 242.163 204.55 240.713 204.859 239.173C205.168 237.634 205.387 236.105 205.517 234.588C205.647 233.07 205.78 231.674 205.917 230.4L208.475 210.912Z" fill="white"/>
<path d="M252.291 222.137L264.829 220.601C267.681 220.302 270.261 220.468 272.57 221.099C274.9 221.728 276.754 222.82 278.13 224.374C279.529 225.926 280.248 227.957 280.288 230.467C280.339 232.524 279.934 234.386 279.071 236.051C278.232 237.713 277.036 239.167 275.485 240.411C273.956 241.653 272.17 242.663 270.129 243.444C268.11 244.221 265.934 244.746 263.602 245.018L245.455 247.282L248.902 205.869L255.253 205.076L252.139 242.029L263.232 240.673C265.226 240.424 267.024 239.881 268.626 239.043C270.25 238.202 271.538 237.122 272.488 235.803C273.437 234.465 273.939 232.929 273.997 231.195C274.034 229.671 273.685 228.419 272.949 227.441C272.236 226.461 271.217 225.772 269.894 225.374C268.568 224.958 267.016 224.832 265.24 224.997L251.895 226.634L252.291 222.137Z" fill="white"/>
<path d="M291.21 200.59L297.562 199.798L294.481 236.746L310.746 234.717L313.826 197.769L320.144 196.98L317.03 233.933L333.194 231.916L336.274 194.968L342.626 194.176L339.146 235.593L287.73 242.008L291.21 200.59Z" fill="white"/>
<path d="M388.698 207.624L388.609 210.197C388.469 212.729 387.963 215.241 387.09 217.733C386.239 220.222 384.989 222.518 383.339 224.619C381.69 226.72 379.621 228.47 377.133 229.869C374.645 231.267 371.706 232.15 368.317 232.517C365.084 232.864 362.309 232.6 359.994 231.725C357.698 230.83 355.828 229.515 354.384 227.781C352.962 226.044 351.919 224.063 351.255 221.838C350.614 219.61 350.33 217.328 350.403 214.992L350.526 212.415C350.644 209.886 351.14 207.384 352.016 204.911C352.911 202.416 354.183 200.118 355.833 198.017C357.505 195.913 359.585 194.162 362.073 192.763C364.558 191.346 367.474 190.456 370.819 190.095C374.096 189.743 376.882 190.005 379.175 190.882C381.491 191.757 383.36 193.063 384.782 194.799C386.204 196.536 387.224 198.52 387.843 200.751C388.484 202.979 388.769 205.27 388.698 207.624ZM382.328 211.009L382.437 208.321C382.488 206.72 382.374 205.073 382.096 203.382C381.817 201.69 381.272 200.144 380.461 198.744C379.67 197.323 378.521 196.228 377.015 195.459C375.508 194.689 373.53 194.42 371.078 194.651C368.585 194.906 366.451 195.585 364.677 196.688C362.901 197.773 361.444 199.137 360.306 200.78C359.189 202.402 358.348 204.149 357.785 206.021C357.221 207.892 356.893 209.735 356.8 211.548L356.691 214.235C356.635 215.8 356.748 217.437 357.029 219.147C357.33 220.836 357.888 222.39 358.701 223.808C359.515 225.227 360.677 226.339 362.188 227.145C363.697 227.933 365.654 228.214 368.06 227.989C370.621 227.725 372.79 227.051 374.566 225.967C376.34 224.863 377.774 223.502 378.87 221.883C379.987 220.261 380.815 218.507 381.354 216.619C381.915 214.729 382.24 212.859 382.328 211.009Z" fill="white"/>
<path d="M429.26 183.367L428.864 187.864L406.012 190.715L402.928 227.636L396.61 228.424L400.09 187.006L429.26 183.367Z" fill="white"/>
<path d="M469.552 197.537L469.462 200.11C469.323 202.642 468.816 205.154 467.943 207.646C467.093 210.135 465.843 212.43 464.193 214.532C462.543 216.633 460.475 218.383 457.987 219.781C455.499 221.18 452.56 222.063 449.17 222.429C445.937 222.776 443.163 222.513 440.847 221.638C438.552 220.742 436.682 219.427 435.237 217.694C433.816 215.957 432.773 213.976 432.109 211.751C431.468 209.523 431.184 207.24 431.257 204.904L431.38 202.328C431.498 199.798 431.994 197.297 432.869 194.823C433.765 192.329 435.037 190.031 436.687 187.929C438.359 185.826 440.439 184.074 442.927 182.676C445.412 181.258 448.327 180.369 451.672 180.008C454.95 179.655 457.736 179.918 460.029 180.795C462.345 181.67 464.213 182.975 465.635 184.712C467.057 186.449 468.078 188.432 468.697 190.663C469.338 192.891 469.623 195.183 469.552 197.537ZM463.182 200.922L463.291 198.234C463.342 196.632 463.228 194.986 462.949 193.294C462.671 191.603 462.126 190.057 461.314 188.657C460.523 187.236 459.374 186.14 457.868 185.371C456.362 184.602 454.383 184.333 451.932 184.564C449.438 184.819 447.305 185.498 445.531 186.601C443.755 187.686 442.298 189.05 441.16 190.693C440.042 192.315 439.202 194.062 438.638 195.933C438.075 197.805 437.747 199.647 437.654 201.46L437.545 204.148C437.489 205.713 437.602 207.35 437.883 209.06C438.184 210.749 438.741 212.302 439.555 213.721C440.368 215.139 441.531 216.252 443.042 217.058C444.55 217.845 446.508 218.127 448.914 217.901C451.475 217.638 453.643 216.964 455.419 215.879C457.193 214.776 458.628 213.415 459.723 211.796C460.841 210.174 461.669 208.419 462.208 206.532C462.769 204.642 463.094 202.772 463.182 200.922Z" fill="white"/>
<path d="M527.05 171.167L526.654 175.664L503.803 178.515L500.719 215.435L494.401 216.223L497.881 174.806L527.05 171.167Z" fill="white"/>
<path d="M567.342 185.337L567.253 187.91C567.113 190.442 566.607 192.954 565.734 195.446C564.883 197.935 563.633 200.23 561.983 202.331C560.334 204.432 558.265 206.182 555.777 207.581C553.289 208.98 550.351 209.862 546.961 210.229C543.728 210.576 540.954 210.312 538.638 209.438C536.342 208.542 534.472 207.227 533.028 205.493C531.606 203.757 530.563 201.776 529.9 199.55C529.258 197.322 528.974 195.04 529.048 192.704L529.171 190.127C529.288 187.598 529.785 185.097 530.66 182.623C531.555 180.128 532.828 177.83 534.477 175.729C536.149 173.625 538.229 171.874 540.717 170.475C543.203 169.058 546.118 168.169 549.463 167.808C552.741 167.455 555.526 167.718 557.819 168.595C560.135 169.469 562.004 170.775 563.426 172.512C564.848 174.248 565.868 176.232 566.487 178.463C567.128 180.691 567.413 182.982 567.342 185.337ZM560.972 188.721L561.082 186.034C561.133 184.432 561.019 182.786 560.74 181.094C560.461 179.402 559.916 177.857 559.105 176.457C558.314 175.035 557.165 173.94 555.659 173.171C554.152 172.402 552.174 172.133 549.723 172.363C547.229 172.618 545.095 173.297 543.321 174.401C541.545 175.485 540.088 176.849 538.95 178.493C537.833 180.114 536.992 181.861 536.429 183.733C535.865 185.605 535.537 187.447 535.444 189.26L535.335 191.948C535.28 193.512 535.392 195.15 535.673 196.86C535.975 198.549 536.532 200.102 537.345 201.521C538.159 202.939 539.321 204.051 540.832 204.857C542.341 205.645 544.298 205.926 546.705 205.701C549.265 205.438 551.434 204.764 553.21 203.679C554.984 202.576 556.418 201.215 557.514 199.596C558.631 197.974 559.46 196.219 559.998 194.332C560.559 192.441 560.884 190.571 560.972 188.721Z" fill="white"/>
<path d="M594.258 187.721L581.149 189.328L581.548 184.859L593.884 183.348C595.99 183.086 597.88 182.55 599.554 181.74C601.25 180.928 602.596 179.86 603.592 178.535C604.609 177.207 605.139 175.611 605.18 173.748C605.231 172.147 604.873 170.822 604.105 169.773C603.358 168.703 602.284 167.936 600.884 167.472C599.484 167.009 597.84 166.867 595.951 167.046L584.387 168.461L581.303 205.382L574.952 206.174L578.432 164.757L595.574 162.646C598.493 162.338 601.144 162.524 603.527 163.202C605.929 163.859 607.845 165 609.276 166.623C610.706 168.246 611.445 170.34 611.491 172.905C611.554 175.787 610.815 178.262 609.275 180.331C607.758 182.396 605.677 184.045 603.031 185.275C600.409 186.503 597.484 187.319 594.258 187.721Z" fill="white"/>
<path d="M655.455 174.344L655.365 176.917C655.225 179.449 654.719 181.961 653.846 184.453C652.995 186.942 651.745 189.237 650.096 191.338C648.446 193.439 646.377 195.189 643.89 196.588C641.402 197.987 638.463 198.87 635.073 199.236C631.84 199.583 629.066 199.32 626.75 198.445C624.455 197.549 622.585 196.234 621.14 194.5C619.718 192.764 618.676 190.783 618.012 188.558C617.371 186.329 617.087 184.047 617.16 181.711L617.283 179.135C617.4 176.605 617.897 174.104 618.772 171.63C619.667 169.135 620.94 166.837 622.59 164.736C624.262 162.632 626.342 160.881 628.829 159.482C631.315 158.065 634.23 157.176 637.575 156.815C640.853 156.462 643.638 156.725 645.932 157.602C648.247 158.477 650.116 159.782 651.538 161.519C652.96 163.255 653.98 165.239 654.599 167.47C655.241 169.698 655.526 171.99 655.455 174.344ZM649.085 177.728L649.194 175.041C649.245 173.439 649.131 171.793 648.852 170.101C648.573 168.41 648.028 166.864 647.217 165.464C646.426 164.042 645.277 162.947 643.771 162.178C642.265 161.409 640.286 161.14 637.835 161.371C635.341 161.625 633.207 162.305 631.434 163.408C629.658 164.493 628.201 165.857 627.063 167.5C625.945 169.122 625.104 170.868 624.541 172.74C623.978 174.612 623.65 176.454 623.557 178.267L623.447 180.955C623.392 182.519 623.505 184.157 623.786 185.867C624.087 187.556 624.644 189.109 625.458 190.528C626.271 191.946 627.434 193.059 628.944 193.865C630.453 194.652 632.41 194.933 634.817 194.708C637.378 194.445 639.546 193.771 641.322 192.686C643.096 191.583 644.531 190.222 645.626 188.603C646.744 186.981 647.572 185.226 648.111 183.339C648.672 181.449 648.996 179.578 649.085 177.728Z" fill="white"/>
<path d="M699.69 186.193L699.291 190.662L663.333 195.148L663.733 190.679L699.69 186.193ZM664.774 190.549L663.526 205.2L657.276 205.98L658.457 191.337L664.774 190.549ZM705.168 185.509L703.882 200.137L697.598 200.921L698.816 186.302L705.168 185.509ZM696.621 150.011L696.225 154.508L675.39 157.108L675.786 152.611L696.621 150.011ZM702.031 149.336L698.551 190.754L692.233 191.542L695.714 150.125L702.031 149.336ZM673.601 152.883L680.02 152.083L677.568 168.855C677.417 170.018 677.204 171.415 676.929 173.044C676.674 174.652 676.32 176.376 675.866 178.215C675.413 180.055 674.845 181.889 674.163 183.72C673.478 185.531 672.632 187.232 671.624 188.821C670.616 190.411 669.42 191.77 668.036 192.9C666.65 194.011 665.049 194.765 663.232 195.16L659.939 195.571L660.137 191.127L662.194 190.927C663.742 189.476 665.048 187.906 666.112 186.216C667.174 184.507 668.045 182.738 668.728 180.907C669.408 179.059 669.937 177.191 670.317 175.305C670.717 173.397 671.029 171.519 671.254 169.671L673.601 152.883Z" fill="white"/>
<path d="M733.431 149.36L714.715 188.737L707.961 189.58L729.554 145.903L733.889 145.362L733.431 149.36ZM743.548 185.14L730.834 149.064L731.066 145.714L735.099 145.211L749.765 184.364L743.548 185.14ZM743.941 169.919L743.545 174.416L716.829 177.749L717.225 173.252L743.941 169.919Z" fill="white"/>
</svg>
