<svg width="376" height="137" viewBox="0 0 376 137" fill="none" xmlns="http://www.w3.org/2000/svg">
<path d="M38.7378 77.5596C38.8717 76.418 38.6557 75.4856 38.09 74.7626C37.5539 74.036 36.7953 73.4557 35.8144 73.0216C34.863 72.584 33.7884 72.2449 32.5907 72.0043C31.4198 71.7366 30.2826 71.5007 29.1792 71.2968C26.7866 70.8392 24.4123 70.2836 22.0563 69.63C19.6975 68.9528 17.5259 68.0856 15.5415 67.0285C13.5572 65.9714 11.9465 64.6543 10.7095 63.0771C9.50213 61.4963 8.83592 59.5518 8.71093 57.2434C8.60567 54.5973 9.26815 52.2311 10.6984 50.1447C12.1286 48.0583 14.0591 46.2716 16.4899 44.7846C18.9475 43.2705 21.6365 42.0641 24.5571 41.1655C27.5044 40.2397 30.4143 39.6298 33.287 39.3356C37.3714 38.8972 41.0856 39.1256 44.4296 40.0208C47.8032 40.9125 50.5482 42.4419 52.6647 44.609C54.7785 46.7524 56.0055 49.5045 56.3457 52.865L41.3161 54.6546C41.2177 53.325 40.8596 52.206 40.2419 51.2975C39.6509 50.362 38.7762 49.6877 37.6179 49.2747C36.4568 48.8381 35.003 48.7118 33.2563 48.8959C31.8052 49.0447 30.3794 49.4061 28.979 49.98C27.5757 50.5303 26.3898 51.2703 25.4214 52.1999C24.453 53.1296 23.8969 54.2496 23.7532 55.5601C23.6616 56.553 23.9549 57.3804 24.6332 58.0421C25.3087 58.6802 26.1947 59.1974 27.291 59.5938C28.3846 59.9666 29.514 60.2632 30.6793 60.4838C31.8742 60.7008 32.9157 60.8881 33.8038 61.0458C36.3146 61.4894 38.7375 62.0751 41.0723 62.8031C43.434 63.5039 45.5507 64.4135 47.4224 65.5319C49.3237 66.6468 50.838 68.0353 51.9652 69.6975C53.1191 71.3325 53.7452 73.3177 53.8434 75.6533C53.9247 78.3501 53.3094 80.7347 51.9974 82.807C50.6855 84.8793 48.888 86.6502 46.6049 88.1196C44.3219 89.589 41.7644 90.7677 38.9325 91.6558C36.1006 92.5438 33.1907 93.1538 30.2026 93.4856C26.8571 93.836 23.6911 93.8058 20.7045 93.395C17.7152 92.9605 15.0545 92.1396 12.7225 90.9323C10.3877 89.7014 8.50119 88.0817 7.06301 86.0734C5.62202 84.0415 4.76376 81.6168 4.48823 78.7994L19.6994 77.0242C19.7682 78.3572 20.0108 79.5139 20.4273 80.4943C20.8706 81.4474 21.5024 82.2225 22.3229 82.8194C23.1701 83.3891 24.2207 83.779 25.4747 83.989C26.7259 84.1753 28.2087 84.1664 29.923 83.9623C31.3712 83.7899 32.7393 83.4473 34.0272 82.9347C35.3418 82.395 36.4256 81.6791 37.2786 80.7872C38.1316 79.8952 38.618 78.8194 38.7378 77.5596Z" fill="white"/>
<path d="M87.9294 46.9848L87.0987 55.4906L58.9903 58.8374L59.8209 50.3316L87.9294 46.9848ZM66.6222 39.8574L81.2085 38.1207L77.8011 74.4534C77.7813 75.294 77.8628 75.9789 78.0457 76.508C78.2258 77.0135 78.584 77.378 79.1202 77.6016C79.6831 77.798 80.5142 77.8547 81.6135 77.7718C82.237 77.7215 82.8562 77.6358 83.4713 77.5146C84.0864 77.3935 84.7014 77.2724 85.3165 77.1512L85.3261 85.9163C84.0945 86.3982 82.8221 86.7892 81.5089 87.0893C80.2253 87.3858 78.9037 87.6151 77.5441 87.7769C74.5237 88.0887 71.9389 87.9054 69.7898 87.2272C67.6675 86.5219 66.0455 85.3617 64.924 83.7468C63.8292 82.1048 63.2714 80.0635 63.2505 77.6229L66.6222 39.8574Z" fill="white"/>
<path d="M115.11 72.8494L116.315 56.5387C116.332 55.6744 116.22 54.8614 115.98 54.0997C115.769 53.3344 115.323 52.7408 114.643 52.3187C113.99 51.8695 113.027 51.7088 111.753 51.8365C110.598 51.9502 109.642 52.2316 108.886 52.6809C108.13 53.1301 107.554 53.7017 107.157 54.3957C106.76 55.0896 106.507 55.8622 106.399 56.7134L91.7767 58.5263C91.6306 56.2923 92.1417 54.2914 93.3101 52.5236C94.4785 50.7557 96.0663 49.2374 98.0734 47.9685C100.081 46.6996 102.312 45.6794 104.768 44.908C107.254 44.133 109.726 43.6231 112.185 43.3782C115.56 43.0242 118.672 43.2286 121.52 43.9912C124.396 44.7266 126.693 46.0219 128.413 47.8769C130.159 49.7048 131.027 52.0805 131.015 55.004L129.74 71.1074C129.643 72.556 129.587 74.0956 129.571 75.7262C129.552 77.3331 130.024 78.774 130.985 80.0487L131.021 80.7271L116.793 82.457C115.96 80.9993 115.445 79.4439 115.249 77.7908C115.052 76.1376 115.005 74.4905 115.11 72.8494ZM118.213 58.5043L117.642 65.0391L111.919 65.6847C110.798 65.842 109.738 66.124 108.737 66.5305C107.763 66.91 106.906 67.3952 106.167 67.9861C105.428 68.5771 104.837 69.2703 104.392 70.0658C103.976 70.8577 103.751 71.7348 103.716 72.6971C103.674 73.3488 103.802 73.9204 104.1 74.4118C104.425 74.876 104.872 75.23 105.44 75.4737C106.038 75.7138 106.753 75.7964 107.583 75.7215C108.857 75.5938 110.061 75.2588 111.195 74.7166C112.33 74.1743 113.282 73.4861 114.052 72.652C114.852 71.8143 115.356 70.8919 115.566 69.8849L118.732 74.5737C118.11 75.8932 117.357 77.1206 116.473 78.2557C115.619 79.3874 114.616 80.405 113.464 81.3085C112.34 82.1849 111.047 82.9136 109.588 83.4946C108.128 84.0755 106.481 84.4633 104.645 84.6579C102.009 84.9238 99.5252 84.7047 97.1931 84.0003C94.8611 83.296 92.945 82.1829 91.4448 80.6609C89.9447 79.139 89.1082 77.2746 88.9353 75.0677C88.7498 72.503 89.2814 70.2961 90.53 68.4469C91.7786 66.5977 93.4994 65.0635 95.6923 63.8443C97.912 62.598 100.358 61.6123 103.029 60.887C105.73 60.1583 108.425 59.6337 111.115 59.3135L118.213 58.5043Z" fill="white"/>
<path d="M153.931 48.0721L151.016 78.3463L136.43 80.083L140.2 40.761L153.811 39.1404L153.931 48.0721ZM151.371 57.5382L148.373 58.0389C148.366 55.7164 148.687 53.3788 149.336 51.0262C149.983 48.6499 151.01 46.4558 152.419 44.4437C153.858 42.4282 155.727 40.7566 158.027 39.4288C160.354 38.074 163.175 37.2231 166.491 36.8762C169.189 36.6268 171.446 36.8252 173.262 37.4712C175.107 38.1138 176.572 39.089 177.657 40.3969C178.739 41.6812 179.504 43.1949 179.951 44.938C180.425 46.6539 180.655 48.4588 180.641 50.3527L178.459 75.0787L163.784 76.826L165.998 51.9884C166.013 50.8608 165.852 49.886 165.514 49.064C165.206 48.2384 164.625 47.637 163.771 47.2597C162.946 46.8789 161.764 46.7681 160.224 46.9275C158.507 47.108 157.09 47.5402 155.972 48.2242C154.884 48.9046 154.012 49.7629 153.356 50.7991C152.727 51.8081 152.258 52.9058 151.95 54.0922C151.668 55.2514 151.475 56.4001 151.371 57.5382Z" fill="white"/>
<path d="M214.131 61.2389L218.532 15.1235L233.207 13.3762L227.893 69.1928L214.814 70.7501L214.131 61.2389ZM186.552 55.4331L186.547 54.6432C186.624 52.263 187.007 49.8222 187.699 47.3207C188.39 44.8193 189.461 42.4883 190.913 40.3275C192.394 38.1632 194.321 36.3529 196.696 34.8966C199.1 33.4367 202.052 32.5464 205.55 32.2256C208.517 31.9681 211.025 32.388 213.075 33.4853C215.124 34.5826 216.786 36.0852 218.063 37.993C219.336 39.8773 220.297 41.9065 220.946 44.0807C221.594 46.2549 222 48.2784 222.163 50.1511L222.144 51.1234C221.94 53.1836 221.426 55.4124 220.602 57.8098C219.805 60.18 218.653 62.4609 217.145 64.6523C215.665 66.8166 213.815 68.6535 211.597 70.1631C209.376 71.6491 206.768 72.5344 203.775 72.819C200.515 73.1352 197.78 72.8261 195.571 71.8916C193.361 70.9572 191.582 69.6121 190.234 67.8565C188.916 66.0974 187.961 64.1273 187.372 61.946C186.812 59.7613 186.539 57.5903 186.552 55.4331ZM201.174 52.8658L201.174 53.6203C201.186 54.481 201.229 55.4699 201.302 56.5869C201.375 57.7039 201.578 58.7815 201.912 59.8196C202.275 60.8542 202.869 61.6936 203.696 62.3377C204.548 62.9547 205.733 63.2089 207.249 63.1002C209.444 62.9107 211.183 62.2845 212.465 61.2216C213.777 60.1553 214.72 58.8814 215.293 57.4001C215.892 55.8916 216.207 54.3811 216.237 52.8686L216.298 49.9871C216.331 49.0013 216.283 47.9652 216.153 46.8788C216.053 45.7889 215.783 44.7792 215.343 43.8496C214.902 42.9201 214.216 42.1875 213.283 41.6519C212.35 41.1163 211.069 40.9335 209.44 41.1034C207.72 41.2603 206.31 41.7516 205.209 42.5772C204.138 43.3994 203.314 44.4076 202.737 45.6021C202.186 46.7694 201.794 48.0017 201.558 49.2992C201.35 50.5695 201.222 51.7583 201.174 52.8658Z" fill="white"/>
<path d="M275.751 11.1848L290.914 9.37941L287.739 43.8881C287.499 47.9165 286.29 51.4855 284.113 54.595C281.965 57.7009 279.012 60.2201 275.256 62.1523C271.499 64.0846 267.135 65.3228 262.164 65.8668C257.545 66.3449 253.416 66.0341 249.778 64.9344C246.169 63.8312 243.343 62.0001 241.3 59.4411C239.257 56.882 238.289 53.668 238.398 49.7988L241.569 15.2547L256.776 13.4441L253.654 48.0184C253.603 49.6052 253.791 51.0559 254.217 52.3703C254.673 53.6813 255.513 54.695 256.737 55.4114C257.962 56.1279 259.7 56.376 261.952 56.1558C264.354 55.9416 266.307 55.3498 267.81 54.3804C269.343 53.4075 270.485 52.1698 271.235 50.6674C272.015 49.1614 272.463 47.5152 272.581 45.7289L275.751 11.1848Z" fill="white"/>
<path d="M322.774 40.1836L306.366 42.1014L307.307 32.2531L322.163 30.5202C324.084 30.2914 325.81 29.8104 327.342 29.0772C328.87 28.3204 330.089 27.349 330.997 26.1631C331.905 24.9772 332.412 23.5755 332.519 21.958C332.631 20.6274 332.441 19.4164 331.952 18.3251C331.462 17.2337 330.656 16.3835 329.535 15.7746C328.413 15.1657 326.947 14.9331 325.135 15.0769L314.535 16.3031L310.4 59.3689L295.238 61.1743L300.269 8.26558L324.48 5.41876C328.715 4.98636 332.585 5.26801 336.091 6.26372C339.597 7.25941 342.416 8.91165 344.55 11.2204C346.683 13.5292 347.784 16.4759 347.851 20.0606C347.922 23.9323 346.777 27.2781 344.415 30.0982C342.082 32.9148 338.994 35.1746 335.15 36.8778C331.333 38.5538 327.208 39.6557 322.774 40.1836Z" fill="white"/>
<path d="M71.8368 109.51L71.6385 111.758L60.1808 113.186L58.6367 131.647L55.4904 132.039L57.2159 111.332L71.8368 109.51ZM58.913 119.466L65.1904 118.698C66.6183 118.548 67.9101 118.631 69.0658 118.947C70.2326 119.261 71.1606 119.807 71.8498 120.585C72.5502 121.361 72.9102 122.376 72.9299 123.631C72.9556 124.66 72.7526 125.59 72.321 126.423C71.9006 127.254 71.302 127.981 70.5252 128.603C69.7597 129.224 68.8658 129.729 67.8437 130.119C66.8328 130.508 65.7435 130.77 64.5758 130.907L55.4904 132.039L57.2159 111.332L60.3958 110.936L58.8366 129.412L64.3906 128.734C65.3889 128.61 66.289 128.338 67.0911 127.919C67.9045 127.499 68.5491 126.959 69.025 126.299C69.4998 125.63 69.7515 124.862 69.7802 123.995C69.7991 123.233 69.6243 122.607 69.2559 122.118C68.8986 121.628 68.3887 121.283 67.726 121.084C67.0622 120.876 66.2855 120.814 65.3959 120.896L58.7147 121.715L58.913 119.466Z" fill="white"/>
<path d="M96.0141 116.096L95.9693 117.382C95.8993 118.648 95.6457 119.905 95.2087 121.151C94.7828 122.395 94.157 123.543 93.331 124.593C92.5051 125.644 91.4694 126.519 90.2238 127.218C88.9782 127.918 87.5069 128.359 85.8097 128.542C84.1911 128.716 82.8021 128.584 81.6427 128.147C80.4934 127.699 79.5571 127.041 78.834 126.174C78.1221 125.306 77.6 124.316 77.2677 123.203C76.9467 122.089 76.8045 120.948 76.8412 119.78L76.9028 118.491C76.9616 117.227 77.2101 115.976 77.6483 114.739C78.0966 113.492 78.7337 112.343 79.5596 111.292C80.3968 110.24 81.4381 109.365 82.6837 108.665C83.9281 107.957 85.3877 107.512 87.0624 107.332C88.7035 107.155 90.0981 107.286 91.2462 107.725C92.4056 108.162 93.3413 108.815 94.0532 109.683C94.7651 110.552 95.276 111.544 95.5858 112.659C95.9069 113.773 96.0496 114.919 96.0141 116.096ZM92.8248 117.788L92.8795 116.445C92.905 115.644 92.848 114.821 92.7084 113.975C92.5689 113.129 92.296 112.356 91.8898 111.656C91.4937 110.945 90.9186 110.398 90.1645 110.013C89.4103 109.629 88.4196 109.494 87.1924 109.609C85.9439 109.737 84.8757 110.076 83.9876 110.628C83.0983 111.17 82.3689 111.852 81.7992 112.674C81.2396 113.485 80.8187 114.358 80.5367 115.294C80.2546 116.23 80.0903 117.151 80.0438 118.058L79.9892 119.402C79.9613 120.184 80.0178 121.003 80.1585 121.858C80.3093 122.702 80.5883 123.479 80.9956 124.188C81.403 124.897 81.9848 125.454 82.7413 125.857C83.4966 126.25 84.4766 126.391 85.6814 126.278C86.9635 126.147 88.0492 125.81 88.9385 125.267C89.8265 124.716 90.5448 124.035 91.0932 123.226C91.6528 122.415 92.0674 121.537 92.3371 120.594C92.618 119.648 92.7806 118.713 92.8248 117.788Z" fill="white"/>
<path d="M116.322 103.967L116.123 106.216L105.238 107.572L105.436 105.324L116.322 103.967ZM119.031 103.63L117.305 124.337L114.125 124.733L115.867 104.024L119.031 103.63ZM104.376 105.456L107.522 105.064L106.146 115.27C106.03 116.167 105.902 117.111 105.764 118.104C105.626 119.097 105.411 120.072 105.12 121.027C104.839 121.973 104.425 122.85 103.876 123.66C103.338 124.458 102.619 125.13 101.718 125.674C100.828 126.207 99.7029 126.549 98.3434 126.699L97.4012 126.817L97.4329 124.603L98.0351 124.5C99.0153 124.321 99.8059 123.993 100.407 123.515C101.018 123.026 101.492 122.441 101.829 121.761C102.165 121.081 102.411 120.356 102.566 119.587C102.72 118.817 102.83 118.052 102.895 117.294C102.96 116.535 103.027 115.837 103.096 115.2L104.376 105.456Z" fill="white"/>
<path d="M126.313 111.068L132.591 110.3C134.019 110.151 135.311 110.234 136.466 110.549C137.633 110.864 138.561 111.41 139.25 112.187C139.951 112.963 140.311 113.978 140.33 115.233C140.356 116.262 140.153 117.193 139.721 118.025C139.301 118.856 138.702 119.583 137.926 120.205C137.16 120.826 136.266 121.332 135.244 121.722C134.233 122.11 133.144 122.373 131.976 122.509L122.891 123.641L124.616 102.934L127.796 102.538L126.237 121.014L131.791 120.336C132.789 120.212 133.689 119.94 134.492 119.521C135.305 119.101 135.95 118.561 136.425 117.901C136.9 117.232 137.152 116.464 137.181 115.597C137.2 114.835 137.025 114.209 136.656 113.721C136.299 113.23 135.789 112.886 135.126 112.687C134.463 112.479 133.686 112.416 132.796 112.498L126.115 113.317L126.313 111.068Z" fill="white"/>
<path d="M145.799 100.295L148.979 99.8986L147.436 118.373L155.58 117.358L157.122 98.884L160.285 98.4899L158.726 116.966L166.819 115.958L168.361 97.4836L171.541 97.0874L169.799 117.796L144.057 121.004L145.799 100.295Z" fill="white"/>
<path d="M194.608 103.812L194.563 105.098C194.493 106.364 194.239 107.62 193.802 108.866C193.377 110.111 192.751 111.259 191.925 112.309C191.099 113.36 190.063 114.235 188.818 114.934C187.572 115.633 186.101 116.075 184.403 116.258C182.785 116.432 181.396 116.3 180.236 115.862C179.087 115.415 178.151 114.757 177.428 113.89C176.716 113.022 176.194 112.031 175.861 110.919C175.54 109.805 175.398 108.664 175.435 107.496L175.497 106.207C175.555 104.943 175.804 103.692 176.242 102.455C176.69 101.208 177.327 100.059 178.153 99.008C178.991 97.9561 180.032 97.0804 181.277 96.381C182.522 95.6724 183.981 95.2278 185.656 95.0473C187.297 94.871 188.692 95.0021 189.84 95.4408C190.999 95.8781 191.935 96.5309 192.647 97.3992C193.359 98.2676 193.87 99.2595 194.18 100.375C194.501 101.489 194.643 102.635 194.608 103.812ZM191.419 105.504L191.473 104.16C191.499 103.36 191.442 102.536 191.302 101.69C191.163 100.845 190.89 100.072 190.484 99.3717C190.087 98.6611 189.512 98.1135 188.758 97.7289C188.004 97.3444 187.013 97.2098 185.786 97.3252C184.538 97.4526 183.469 97.7921 182.581 98.3437C181.692 98.8861 180.963 99.5681 180.393 100.39C179.833 101.201 179.413 102.074 179.13 103.01C178.848 103.946 178.684 104.867 178.638 105.774L178.583 107.117C178.555 107.9 178.612 108.718 178.752 109.573C178.903 110.418 179.182 111.195 179.589 111.904C179.997 112.613 180.579 113.169 181.335 113.572C182.09 113.966 183.07 114.107 184.275 113.994C185.557 113.863 186.643 113.526 187.532 112.983C188.42 112.431 189.139 111.751 189.687 110.941C190.247 110.13 190.661 109.253 190.931 108.309C191.212 107.364 191.374 106.429 191.419 105.504Z" fill="white"/>
<path d="M214.915 91.6832L214.717 93.9316L203.276 95.3571L201.732 113.818L198.569 114.212L200.311 93.5028L214.915 91.6832Z" fill="white"/>
<path d="M235.089 98.7682L235.044 100.055C234.974 101.321 234.72 102.577 234.283 103.823C233.857 105.067 233.231 106.215 232.405 107.265C231.58 108.316 230.544 109.191 229.298 109.89C228.053 110.59 226.581 111.031 224.884 111.214C223.265 111.388 221.876 111.256 220.717 110.819C219.568 110.371 218.632 109.713 217.908 108.847C217.197 107.978 216.674 106.988 216.342 105.875C216.021 104.761 215.879 103.62 215.916 102.452L215.977 101.163C216.036 99.8989 216.285 98.6482 216.723 97.4114C217.171 96.1639 217.808 95.0149 218.634 93.9643C219.471 92.9124 220.513 92.0367 221.758 91.3373C223.002 90.6287 224.462 90.1841 226.137 90.0036C227.778 89.8273 229.172 89.9585 230.321 90.3971C231.48 90.8344 232.416 91.4872 233.128 92.3556C233.839 93.2239 234.35 94.2158 234.66 95.3313C234.981 96.4453 235.124 97.591 235.089 98.7682ZM231.899 100.46L231.954 99.1166C231.979 98.3159 231.922 97.4926 231.783 96.6468C231.643 95.801 231.37 95.0281 230.964 94.3281C230.568 93.6174 229.993 93.0698 229.239 92.6853C228.485 92.3007 227.494 92.1661 226.267 92.2815C225.018 92.4089 223.95 92.7484 223.062 93.3C222.173 93.8424 221.443 94.5244 220.874 95.346C220.314 96.157 219.893 97.0304 219.611 97.9663C219.329 98.9022 219.165 99.8234 219.118 100.73L219.064 102.074C219.036 102.856 219.092 103.675 219.233 104.53C219.384 105.374 219.663 106.151 220.07 106.86C220.477 107.569 221.059 108.126 221.816 108.529C222.571 108.922 223.551 109.063 224.756 108.95C226.038 108.819 227.124 108.482 228.013 107.939C228.901 107.388 229.619 106.707 230.168 105.898C230.727 105.087 231.142 104.209 231.412 103.266C231.692 102.321 231.855 101.385 231.899 100.46Z" fill="white"/>
<path d="M263.876 85.583L263.678 87.8314L252.237 89.2569L250.693 107.717L247.53 108.111L249.272 87.4026L263.876 85.583Z" fill="white"/>
<path d="M284.049 92.668L284.004 93.9544C283.934 95.2204 283.68 96.4764 283.243 97.7225C282.818 98.9671 282.192 100.115 281.366 101.165C280.54 102.216 279.504 103.091 278.259 103.79C277.013 104.49 275.542 104.931 273.845 105.114C272.226 105.288 270.837 105.156 269.677 104.719C268.528 104.271 267.592 103.613 266.869 102.746C266.157 101.878 265.635 100.888 265.303 99.7748C264.981 98.6608 264.839 97.5197 264.876 96.3517L264.938 95.0633C264.996 93.7987 265.245 92.548 265.683 91.3111C266.131 90.0637 266.768 88.9147 267.594 87.8641C268.432 86.8122 269.473 85.9365 270.718 85.2371C271.963 84.5285 273.422 84.0839 275.097 83.9034C276.738 83.7271 278.133 83.8583 279.281 84.2969C280.44 84.7342 281.376 85.387 282.088 86.2554C282.8 87.1237 283.311 88.1156 283.621 89.231C283.942 90.3451 284.084 91.4908 284.049 92.668ZM280.86 94.3602L280.914 93.0164C280.94 92.2157 280.883 91.3924 280.743 90.5466C280.604 89.7008 280.331 88.9279 279.925 88.2279C279.529 87.5172 278.953 86.9696 278.199 86.5851C277.445 86.2005 276.454 86.0659 275.227 86.1813C273.979 86.3087 272.91 86.6482 272.022 87.1998C271.133 87.7422 270.404 88.4242 269.834 89.2458C269.274 90.0568 268.854 90.9302 268.571 91.8661C268.289 92.802 268.125 93.7232 268.079 94.6297L268.024 95.9736C267.996 96.7558 268.053 97.5744 268.193 98.4295C268.344 99.2739 268.623 100.051 269.03 100.76C269.438 101.469 270.02 102.025 270.776 102.428C271.531 102.822 272.511 102.963 273.716 102.85C274.998 102.719 276.084 102.382 276.973 101.839C277.861 101.288 278.58 100.607 279.128 99.7974C279.688 98.9865 280.102 98.1091 280.372 97.1654C280.653 96.2203 280.815 95.2852 280.86 94.3602Z" fill="white"/>
<path d="M297.525 93.8602L290.961 94.6638L291.161 92.4293L297.338 91.6738C298.392 91.5425 299.338 91.2744 300.176 90.8698C301.025 90.4637 301.699 89.9294 302.198 89.2668C302.707 88.6028 302.972 87.8051 302.993 86.8737C303.018 86.0729 302.839 85.4104 302.455 84.8859C302.081 84.3508 301.543 83.9674 300.842 83.7357C300.141 83.504 299.318 83.433 298.372 83.5227L292.583 84.23L291.039 102.69L287.859 103.087L289.601 82.3778L298.184 81.3225C299.645 81.1686 300.972 81.2612 302.165 81.6005C303.368 81.9292 304.327 82.4993 305.044 83.3108C305.76 84.1223 306.129 85.1693 306.153 86.4518C306.184 87.8928 305.814 89.1305 305.043 90.1648C304.284 91.1978 303.241 92.0219 301.917 92.6373C300.604 93.2513 299.14 93.6589 297.525 93.8602Z" fill="white"/>
<path d="M328.164 87.1716L328.119 88.4579C328.049 89.7239 327.795 90.9799 327.358 92.226C326.932 93.4706 326.307 94.6183 325.481 95.6688C324.655 96.7194 323.619 97.5943 322.373 98.2937C321.128 98.9931 319.656 99.4345 317.959 99.6178C316.341 99.7913 314.952 99.6594 313.792 99.2221C312.643 98.7742 311.707 98.1168 310.984 97.2499C310.272 96.3815 309.75 95.391 309.417 94.2784C309.096 93.1643 308.954 92.0233 308.991 90.8552L309.052 89.5668C309.111 88.3022 309.36 87.0515 309.798 85.8147C310.246 84.5672 310.883 83.4182 311.709 82.3677C312.546 81.3157 313.588 80.44 314.833 79.7407C316.078 79.032 317.537 78.5875 319.212 78.4069C320.853 78.2306 322.248 78.3618 323.396 78.8005C324.555 79.2377 325.491 79.8905 326.203 80.7589C326.915 81.6272 327.426 82.6191 327.735 83.7346C328.057 84.8486 328.199 85.9943 328.164 87.1716ZM324.974 88.8638L325.029 87.5199C325.055 86.7192 324.998 85.8959 324.858 85.0501C324.718 84.2043 324.446 83.4314 324.039 82.7314C323.643 82.0207 323.068 81.4731 322.314 81.0886C321.56 80.704 320.569 80.5694 319.342 80.6848C318.094 80.8122 317.025 81.1517 316.137 81.7034C315.248 82.2458 314.518 82.9278 313.949 83.7494C313.389 84.5603 312.968 85.4337 312.686 86.3696C312.404 87.3055 312.24 88.2267 312.193 89.1332L312.139 90.4771C312.111 91.2593 312.167 92.078 312.308 92.933C312.459 93.7774 312.738 94.5543 313.145 95.2635C313.553 95.9728 314.134 96.5289 314.891 96.9319C315.646 97.3257 316.626 97.4663 317.831 97.3538C319.113 97.2222 320.199 96.8852 321.088 96.3428C321.976 95.7911 322.694 95.1105 323.243 94.301C323.802 93.49 324.217 92.6127 324.487 91.669C324.768 90.7238 324.93 89.7888 324.974 88.8638Z" fill="white"/>
<path d="M350.311 93.0958L350.111 95.3304L332.108 97.5734L332.308 95.3389L350.311 93.0958ZM332.83 95.2739L332.205 102.6L329.075 102.99L329.667 95.668L332.83 95.2739ZM353.053 92.7542L352.41 100.068L349.264 100.46L349.873 93.1503L353.053 92.7542ZM348.774 75.0051L348.576 77.2535L338.144 78.5532L338.343 76.3048L348.774 75.0051ZM351.483 74.6676L349.741 95.3765L346.578 95.7706L348.32 75.0617L351.483 74.6676ZM337.249 76.4411L340.463 76.0407L339.235 84.4269C339.16 85.0087 339.053 85.7069 338.915 86.5216C338.788 87.3257 338.61 88.1875 338.383 89.1072C338.156 90.0268 337.872 90.9442 337.53 91.8594C337.187 92.7653 336.764 93.6156 336.259 94.4103C335.754 95.2051 335.155 95.8848 334.463 96.4497C333.769 97.0053 332.967 97.382 332.058 97.5797L330.409 97.7851L330.508 95.5632L331.538 95.463C332.313 94.7378 332.967 93.9526 333.5 93.1075C334.031 92.2531 334.467 91.3684 334.809 90.4532C335.149 89.5288 335.415 88.595 335.605 87.6519C335.805 86.6981 335.961 85.7591 336.074 84.8349L337.249 76.4411Z" fill="white"/>
<path d="M367.204 74.6793L357.833 94.3682L354.452 94.7895L365.263 72.9508L367.433 72.6804L367.204 74.6793ZM372.269 92.5696L365.904 74.5316L366.02 72.8564L368.039 72.6049L375.382 92.1818L372.269 92.5696ZM372.466 84.9592L372.267 87.2076L358.892 88.8741L359.09 86.6257L372.466 84.9592Z" fill="white"/>
</svg>
