<svg width="485" height="176" viewBox="0 0 485 176" fill="none" xmlns="http://www.w3.org/2000/svg">
<path d="M49.9677 99.6387C50.1403 98.172 49.8618 96.9743 49.1321 96.0454C48.4405 95.112 47.462 94.3665 46.1967 93.8088C44.9695 93.2467 43.5835 92.811 42.0386 92.5019C40.5282 92.1579 39.0613 91.855 37.638 91.593C34.5518 91.0051 31.4892 90.2913 28.4503 89.4517C25.4077 88.5817 22.6066 87.4677 20.0469 86.1097C17.4873 84.7516 15.4097 83.0595 13.8142 81.0333C12.2567 79.0026 11.3974 76.5045 11.2362 73.5389C11.1004 70.1396 11.9549 67.0998 13.7997 64.4194C15.6445 61.7391 18.1347 59.4438 21.2702 57.5335C24.4402 55.5883 27.9088 54.0385 31.676 52.8841C35.4777 51.6948 39.2313 50.9112 42.9366 50.5334C48.2051 49.9701 52.9961 50.2635 57.3095 51.4136C61.661 52.5591 65.2018 54.5239 67.9319 57.3079C70.6584 60.0615 72.2411 63.597 72.6799 67.9142L53.2933 70.2132C53.1665 68.5051 52.7046 67.0676 51.9077 65.9005C51.1454 64.6986 50.0172 63.8323 48.5231 63.3018C47.0254 62.741 45.1501 62.5787 42.8971 62.8151C41.0253 63.0063 39.1862 63.4706 37.3798 64.2079C35.5697 64.9148 34.0401 65.8655 32.7909 67.0598C31.5417 68.2541 30.8244 69.693 30.6391 71.3765C30.5209 72.6521 30.8993 73.7149 31.7743 74.565C32.6456 75.3848 33.7883 76.0493 35.2025 76.5585C36.6131 77.0374 38.0699 77.4185 39.5731 77.7018C41.1144 77.9806 42.4578 78.2213 43.6033 78.4239C46.842 78.9937 49.9672 79.7462 52.979 80.6813C56.0252 81.5817 58.7555 82.7502 61.1699 84.187C63.6224 85.6193 65.5756 87.4031 67.0295 89.5384C68.518 91.6388 69.3256 94.1892 69.4523 97.1896C69.5572 100.654 68.7635 103.718 67.0712 106.38C65.3789 109.042 63.0603 111.317 60.1154 113.205C57.1705 115.092 53.8716 116.607 50.2188 117.748C46.566 118.888 42.8125 119.672 38.9582 120.098C34.6428 120.549 30.559 120.51 26.7066 119.982C22.8507 119.424 19.4187 118.369 16.4107 116.818C13.399 115.237 10.9656 113.156 9.11053 110.576C7.25181 107.966 6.14474 104.851 5.78933 101.231L25.4101 98.9508C25.4989 100.663 25.8119 102.149 26.3491 103.409C26.9208 104.633 27.7358 105.629 28.7942 106.396C29.887 107.128 31.2422 107.629 32.8597 107.898C34.4736 108.138 36.3862 108.126 38.5974 107.864C40.4656 107.642 42.2302 107.202 43.8914 106.544C45.5872 105.851 46.9852 104.931 48.0855 103.785C49.1858 102.639 49.8132 101.257 49.9677 99.6387Z" fill="white"/>
<path d="M113.42 60.36L112.348 71.2872L76.0912 75.5867L77.1626 64.6595L113.42 60.36ZM85.9356 51.2036L104.75 48.9725L100.355 95.6481C100.33 96.7281 100.435 97.6079 100.671 98.2877C100.903 98.9371 101.365 99.4054 102.057 99.6926C102.783 99.9449 103.855 100.018 105.273 99.9112C106.077 99.8466 106.876 99.7365 107.669 99.5809C108.462 99.4252 109.256 99.2696 110.049 99.114L110.062 110.374C108.473 110.993 106.832 111.496 105.138 111.881C103.482 112.262 101.777 112.557 100.024 112.765C96.1276 113.165 92.7936 112.93 90.0215 112.058C87.2839 111.152 85.1917 109.662 83.7451 107.587C82.3329 105.478 81.6134 102.855 81.5865 99.72L85.9356 51.2036Z" fill="white"/>
<path d="M148.479 93.5875L150.034 72.6337C150.056 71.5234 149.912 70.4789 149.601 69.5003C149.329 68.5172 148.755 67.7546 147.878 67.2124C147.036 66.6353 145.793 66.4288 144.15 66.5929C142.659 66.7389 141.427 67.1005 140.452 67.6776C139.477 68.2548 138.733 68.9891 138.221 69.8806C137.709 70.7721 137.383 71.7646 137.243 72.8582L118.382 75.1871C118.194 72.3171 118.853 69.7466 120.36 67.4755C121.867 65.2045 123.915 63.2539 126.504 61.6238C129.093 59.9937 131.972 58.6831 135.14 57.692C138.346 56.6964 141.535 56.0413 144.707 55.7267C149.06 55.272 153.074 55.5345 156.749 56.5142C160.457 57.459 163.421 59.123 165.639 61.5061C167.892 63.8544 169.011 66.9064 168.996 70.662L167.351 91.3496C167.226 93.2107 167.153 95.1886 167.133 97.2833C167.109 99.3477 167.717 101.199 168.957 102.836L169.003 103.708L150.651 105.93C149.577 104.058 148.912 102.059 148.658 99.9356C148.404 97.8119 148.345 95.6958 148.479 93.5875ZM152.482 75.1588L151.746 83.5539L144.363 84.3832C142.918 84.5854 141.55 84.9476 140.259 85.4699C139.003 85.9574 137.898 86.5807 136.945 87.3399C135.992 88.0991 135.228 88.9896 134.654 90.0115C134.119 91.0289 133.828 92.1557 133.782 93.3919C133.728 94.2291 133.893 94.9634 134.278 95.5947C134.697 96.1912 135.273 96.6459 136.007 96.9589C136.778 97.2674 137.7 97.3736 138.771 97.2773C140.414 97.1133 141.967 96.6829 143.43 95.9863C144.894 95.2897 146.122 94.4056 147.115 93.3339C148.146 92.2578 148.797 91.0729 149.068 89.7792L153.152 95.8027C152.349 97.4979 151.378 99.0746 150.238 100.533C149.136 101.987 147.842 103.294 146.357 104.455C144.906 105.581 143.239 106.517 141.357 107.263C139.474 108.009 137.349 108.508 134.982 108.758C131.581 109.099 128.377 108.818 125.369 107.913C122.361 107.008 119.889 105.578 117.954 103.623C116.019 101.668 114.94 99.2725 114.717 96.4374C114.478 93.1426 115.163 90.3074 116.774 87.9318C118.385 85.5562 120.604 83.5852 123.433 82.019C126.296 80.4179 129.451 79.1515 132.896 78.2198C136.38 77.2836 139.857 76.6098 143.326 76.1984L152.482 75.1588Z" fill="white"/>
<path d="M198.554 61.7568L194.794 100.649L175.98 102.88L180.844 52.3645L198.4 50.2826L198.554 61.7568ZM195.252 73.9177L191.385 74.5609C191.377 71.5773 191.791 68.5743 192.628 65.5519C193.462 62.4992 194.787 59.6804 196.605 57.0956C198.461 54.5063 200.872 52.3588 203.838 50.6531C206.84 48.9126 210.479 47.8195 214.756 47.3738C218.236 47.0534 221.147 47.3082 223.489 48.1382C225.869 48.9637 227.759 50.2165 229.158 51.8968C230.554 53.5466 231.541 55.4912 232.118 57.7305C232.729 59.9349 233.026 62.2537 233.007 64.6866L230.193 96.4515L211.264 98.6962L214.119 66.788C214.139 65.3395 213.932 64.0872 213.496 63.0311C213.099 61.9705 212.349 61.1979 211.247 60.7132C210.183 60.2239 208.658 60.0817 206.672 60.2864C204.457 60.5183 202.629 61.0736 201.187 61.9522C199.784 62.8264 198.659 63.929 197.813 65.2601C197.001 66.5564 196.397 67.9666 195.999 69.4907C195.636 70.9799 195.387 72.4556 195.252 73.9177Z" fill="white"/>
<path d="M276.206 78.6718L281.883 19.4287L300.812 17.184L293.958 88.8901L277.087 90.8906L276.206 78.6718ZM240.632 71.2134L240.626 70.1986C240.725 67.1408 241.22 64.0051 242.112 60.7916C243.003 57.5781 244.385 54.5835 246.257 51.8076C248.167 49.0272 250.654 46.7015 253.717 44.8306C256.818 42.9552 260.625 41.8114 265.138 41.3993C268.965 41.0685 272.2 41.608 274.843 43.0176C277.487 44.4273 279.631 46.3576 281.278 48.8086C282.92 51.2292 284.16 53.8361 284.997 56.6292C285.833 59.4223 286.357 62.0218 286.567 64.4277L286.542 65.6768C286.279 68.3234 285.616 71.1867 284.553 74.2666C283.526 77.3116 282.039 80.2417 280.095 83.057C278.184 85.8374 275.799 88.1972 272.937 90.1366C270.072 92.0456 266.709 93.1829 262.847 93.5485C258.643 93.9548 255.115 93.5577 252.265 92.3572C249.415 91.1567 247.121 89.4287 245.382 87.1734C243.681 84.9135 242.45 82.3825 241.69 79.5803C240.968 76.7736 240.615 73.9846 240.632 71.2134ZM259.493 67.9152L259.493 68.8845C259.509 69.9902 259.564 71.2606 259.658 72.6956C259.753 74.1306 260.015 75.5149 260.445 76.8486C260.913 78.1777 261.68 79.256 262.746 80.0835C263.846 80.8761 265.373 81.2027 267.329 81.0631C270.161 80.8196 272.404 80.0151 274.058 78.6497C275.75 77.2798 276.966 75.6433 277.705 73.7403C278.478 71.8023 278.884 69.8619 278.923 67.9188L279.002 64.2171C279.044 62.9505 278.981 61.6195 278.815 60.2239C278.686 58.8237 278.337 57.5266 277.769 56.3324C277.201 55.1382 276.315 54.1971 275.112 53.509C273.908 52.821 272.256 52.5861 270.156 52.8044C267.937 53.0059 266.118 53.6371 264.698 54.6977C263.317 55.7539 262.253 57.0492 261.509 58.5837C260.799 60.0833 260.292 61.6665 259.989 63.3332C259.72 64.9651 259.555 66.4925 259.493 67.9152Z" fill="white"/>
<path d="M355.69 14.3687L375.248 12.0494L371.153 56.3818C370.843 61.557 369.284 66.1419 366.475 70.1366C363.704 74.1268 359.896 77.363 355.05 79.8454C350.205 82.3277 344.576 83.9183 338.163 84.6172C332.205 85.2314 326.879 84.8322 322.187 83.4194C317.532 82.0021 313.887 79.6497 311.251 76.3622C308.616 73.0747 307.368 68.9457 307.508 63.9752L311.598 19.5973L331.214 17.2712L327.186 61.6878C327.121 63.7264 327.363 65.59 327.913 67.2787C328.501 68.9628 329.584 70.2651 331.164 71.1855C332.743 72.1059 334.985 72.4247 337.89 72.1418C340.989 71.8666 343.508 71.1063 345.447 69.861C347.424 68.6111 348.897 67.0211 349.864 65.0909C350.87 63.1562 351.449 61.0414 351.6 58.7466L355.69 14.3687Z" fill="white"/>
<path d="M416.344 51.6227L395.179 54.0864L396.393 41.4347L415.556 39.2084C418.034 38.9145 420.261 38.2966 422.236 37.3547C424.208 36.3824 425.779 35.1345 426.95 33.611C428.122 32.0874 428.776 30.2867 428.914 28.2088C429.058 26.4994 428.814 24.9437 428.182 23.5417C427.551 22.1396 426.512 21.0474 425.065 20.2652C423.618 19.4829 421.726 19.1841 419.39 19.3689L405.717 20.9442L400.384 76.2696L380.825 78.5889L387.314 10.6185L418.544 6.96129C424.007 6.4058 429 6.76763 433.522 8.04678C438.044 9.32593 441.681 11.4485 444.433 14.4145C447.185 17.3805 448.604 21.1661 448.69 25.7713C448.783 30.7451 447.305 35.0434 444.258 38.6663C441.25 42.2846 437.266 45.1878 432.308 47.3758C427.384 49.5289 422.063 50.9446 416.344 51.6227Z" fill="white"/>
<path d="M92.6618 140.684L92.4061 143.573L77.6269 145.407L75.6351 169.123L71.5768 169.626L73.8025 143.025L92.6618 140.684ZM75.9915 153.475L84.0887 152.488C85.9306 152.296 87.5969 152.402 89.0876 152.808C90.5927 153.212 91.7897 153.913 92.6787 154.912C93.5821 155.909 94.0465 157.213 94.0719 158.825C94.105 160.147 93.8432 161.343 93.2865 162.412C92.7442 163.48 91.9721 164.413 90.9701 165.213C89.9826 166.01 88.8297 166.66 87.5113 167.161C86.2073 167.66 84.8022 167.997 83.296 168.172L71.5768 169.626L73.8025 143.025L77.9043 142.516L75.8931 166.252L83.0571 165.381C84.3447 165.221 85.5059 164.872 86.5405 164.334C87.5896 163.794 88.4211 163.1 89.035 162.253C89.6474 161.393 89.9721 160.407 90.0091 159.293C90.0335 158.314 89.8081 157.51 89.3328 156.882C88.872 156.252 88.2142 155.809 87.3594 155.554C86.5032 155.286 85.5013 155.206 84.3539 155.312L75.7358 156.363L75.9915 153.475Z" fill="white"/>
<path d="M123.848 149.145L123.79 150.798C123.7 152.424 123.373 154.038 122.809 155.639C122.26 157.238 121.453 158.712 120.387 160.062C119.322 161.411 117.986 162.535 116.379 163.434C114.773 164.332 112.875 164.899 110.685 165.135C108.598 165.358 106.806 165.188 105.31 164.627C103.828 164.051 102.62 163.207 101.688 162.093C100.769 160.977 100.096 159.705 99.6672 158.275C99.2531 156.844 99.0697 155.378 99.117 153.878L99.1965 152.223C99.2724 150.598 99.5929 148.991 100.158 147.402C100.736 145.8 101.558 144.324 102.624 142.974C103.703 141.623 105.047 140.498 106.653 139.599C108.258 138.689 110.141 138.118 112.301 137.886C114.418 137.659 116.217 137.828 117.698 138.391C119.194 138.953 120.4 139.792 121.319 140.907C122.237 142.023 122.896 143.297 123.296 144.73C123.71 146.161 123.894 147.633 123.848 149.145ZM119.734 151.319L119.805 149.593C119.838 148.564 119.764 147.507 119.584 146.42C119.404 145.334 119.052 144.341 118.528 143.441C118.017 142.528 117.275 141.825 116.303 141.331C115.33 140.837 114.052 140.664 112.469 140.812C110.859 140.976 109.481 141.412 108.335 142.121C107.188 142.817 106.247 143.694 105.512 144.749C104.791 145.791 104.248 146.913 103.884 148.115C103.52 149.318 103.308 150.501 103.248 151.666L103.178 153.392C103.142 154.397 103.214 155.449 103.396 156.547C103.591 157.632 103.95 158.63 104.476 159.541C105.001 160.452 105.752 161.167 106.728 161.684C107.702 162.19 108.966 162.371 110.52 162.226C112.174 162.057 113.574 161.624 114.721 160.927C115.867 160.219 116.793 159.344 117.501 158.304C118.222 157.263 118.757 156.136 119.105 154.923C119.468 153.709 119.677 152.508 119.734 151.319Z" fill="white"/>
<path d="M150.043 133.564L149.787 136.453L135.746 138.195L136.001 135.306L150.043 133.564ZM153.537 133.13L151.311 159.732L147.209 160.241L149.457 133.637L153.537 133.13ZM134.634 135.476L138.692 134.973L136.917 148.084C136.767 149.236 136.603 150.45 136.425 151.725C136.246 153.001 135.969 154.253 135.594 155.481C135.232 156.695 134.697 157.822 133.99 158.862C133.295 159.888 132.367 160.751 131.206 161.449C130.057 162.134 128.606 162.573 126.853 162.767L125.637 162.918L125.678 160.074L126.455 159.942C127.719 159.712 128.739 159.29 129.514 158.676C130.303 158.048 130.914 157.297 131.348 156.423C131.783 155.55 132.1 154.618 132.299 153.629C132.499 152.64 132.64 151.659 132.724 150.684C132.808 149.709 132.894 148.813 132.982 147.994L134.634 135.476Z" fill="white"/>
<path d="M162.931 142.687L171.028 141.7C172.87 141.507 174.536 141.614 176.027 142.02C177.532 142.424 178.729 143.125 179.618 144.123C180.522 145.12 180.986 146.425 181.011 148.037C181.044 149.359 180.783 150.554 180.226 151.624C179.684 152.691 178.911 153.625 177.91 154.424C176.922 155.222 175.769 155.871 174.451 156.372C173.147 156.872 171.742 157.209 170.235 157.384L158.516 158.838L160.742 132.236L164.844 131.727L162.832 155.464L169.996 154.593C171.284 154.433 172.445 154.084 173.48 153.546C174.529 153.006 175.361 152.312 175.974 151.464C176.587 150.605 176.912 149.618 176.949 148.505C176.973 147.525 176.747 146.722 176.272 146.094C175.811 145.464 175.154 145.021 174.299 144.765C173.443 144.498 172.441 144.417 171.293 144.524L162.675 145.575L162.931 142.687Z" fill="white"/>
<path d="M188.065 128.846L192.167 128.337L190.177 152.07L200.681 150.767L202.671 127.033L206.751 126.527L204.74 150.263L215.178 148.968L217.168 125.234L221.27 124.726L219.022 151.33L185.818 155.45L188.065 128.846Z" fill="white"/>
<path d="M251.024 133.364L250.966 135.017C250.875 136.643 250.548 138.257 249.985 139.858C249.435 141.456 248.628 142.931 247.563 144.28C246.497 145.63 245.161 146.754 243.555 147.653C241.948 148.551 240.05 149.118 237.861 149.354C235.773 149.576 233.981 149.407 232.486 148.845C231.003 148.27 229.796 147.425 228.863 146.312C227.945 145.196 227.271 143.924 226.843 142.494C226.429 141.063 226.245 139.597 226.293 138.097L226.372 136.441C226.448 134.817 226.768 133.21 227.334 131.621C227.912 130.019 228.734 128.542 229.799 127.193C230.879 125.841 232.222 124.716 233.829 123.818C235.434 122.908 237.317 122.336 239.477 122.105C241.594 121.878 243.392 122.047 244.873 122.61C246.369 123.172 247.576 124.011 248.494 125.126C249.412 126.242 250.071 127.516 250.471 128.949C250.885 130.38 251.069 131.852 251.024 133.364ZM246.91 135.538L246.98 133.812C247.013 132.783 246.94 131.725 246.76 130.639C246.58 129.552 246.228 128.559 245.704 127.66C245.193 126.747 244.451 126.044 243.478 125.55C242.505 125.056 241.227 124.883 239.645 125.031C238.034 125.195 236.656 125.631 235.511 126.339C234.364 127.036 233.423 127.912 232.688 128.968C231.966 130.01 231.423 131.132 231.059 132.334C230.695 133.536 230.484 134.72 230.424 135.884L230.353 137.611C230.317 138.616 230.39 139.667 230.571 140.766C230.766 141.851 231.126 142.849 231.651 143.76C232.177 144.671 232.927 145.385 233.903 145.903C234.877 146.409 236.141 146.59 237.695 146.445C239.349 146.276 240.75 145.843 241.897 145.146C243.042 144.438 243.969 143.563 244.676 142.523C245.398 141.481 245.933 140.354 246.281 139.142C246.643 137.928 246.853 136.726 246.91 135.538Z" fill="white"/>
<path d="M277.218 117.783L276.962 120.671L262.205 122.503L260.213 146.218L256.133 146.725L258.381 120.12L277.218 117.783Z" fill="white"/>
<path d="M303.239 126.885L303.182 128.537C303.091 130.164 302.764 131.777 302.2 133.378C301.651 134.977 300.844 136.451 299.778 137.801C298.713 139.151 297.377 140.275 295.77 141.173C294.164 142.072 292.266 142.639 290.077 142.874C287.989 143.097 286.197 142.928 284.702 142.366C283.219 141.79 282.012 140.946 281.079 139.832C280.16 138.717 279.487 137.444 279.058 136.015C278.644 134.583 278.461 133.118 278.508 131.617L278.588 129.962C278.664 128.337 278.984 126.731 279.549 125.142C280.128 123.539 280.949 122.063 282.015 120.713C283.095 119.362 284.438 118.237 286.044 117.338C287.65 116.428 289.532 115.857 291.692 115.625C293.809 115.399 295.608 115.567 297.089 116.131C298.585 116.692 299.792 117.531 300.71 118.647C301.628 119.762 302.287 121.036 302.687 122.469C303.101 123.901 303.285 125.372 303.239 126.885ZM299.125 129.059L299.196 127.332C299.229 126.304 299.155 125.246 298.975 124.159C298.795 123.073 298.443 122.08 297.919 121.181C297.408 120.268 296.667 119.564 295.694 119.07C294.721 118.576 293.443 118.403 291.86 118.551C290.25 118.715 288.872 119.151 287.726 119.86C286.579 120.557 285.638 121.433 284.904 122.488C284.182 123.53 283.639 124.652 283.275 125.855C282.911 127.057 282.699 128.24 282.639 129.405L282.569 131.131C282.533 132.136 282.606 133.188 282.787 134.286C282.982 135.371 283.342 136.369 283.867 137.28C284.392 138.191 285.143 138.906 286.119 139.424C287.093 139.93 288.357 140.11 289.911 139.966C291.565 139.796 292.965 139.364 294.112 138.667C295.258 137.958 296.184 137.084 296.892 136.044C297.614 135.002 298.148 133.875 298.496 132.662C298.859 131.448 299.068 130.247 299.125 129.059Z" fill="white"/>
<path d="M340.372 109.946L340.116 112.835L325.359 114.666L323.367 138.381L319.287 138.888L321.534 112.284L340.372 109.946Z" fill="white"/>
<path d="M366.393 119.048L366.335 120.701C366.245 122.327 365.918 123.941 365.354 125.541C364.805 127.14 363.997 128.615 362.932 129.964C361.867 131.314 360.531 132.438 358.924 133.336C357.317 134.235 355.42 134.802 353.23 135.037C351.142 135.26 349.351 135.091 347.855 134.529C346.373 133.954 345.165 133.109 344.232 131.995C343.314 130.88 342.641 129.607 342.212 128.178C341.798 126.747 341.615 125.281 341.662 123.78L341.741 122.125C341.817 120.501 342.138 118.894 342.703 117.305C343.281 115.702 344.103 114.226 345.168 112.877C346.248 111.525 347.591 110.4 349.198 109.502C350.803 108.591 352.686 108.02 354.846 107.788C356.963 107.562 358.762 107.73 360.243 108.294C361.738 108.856 362.945 109.694 363.864 110.81C364.782 111.925 365.441 113.2 365.841 114.633C366.255 116.064 366.439 117.536 366.393 119.048ZM362.279 121.222L362.35 119.496C362.383 118.467 362.309 117.409 362.129 116.323C361.949 115.236 361.597 114.243 361.073 113.344C360.562 112.431 359.82 111.727 358.848 111.233C357.875 110.739 356.597 110.566 355.014 110.715C353.404 110.878 352.026 111.315 350.88 112.023C349.733 112.72 348.792 113.596 348.057 114.652C347.335 115.693 346.793 116.815 346.429 118.018C346.065 119.22 345.853 120.404 345.793 121.568L345.722 123.295C345.687 124.299 345.759 125.351 345.941 126.45C346.135 127.534 346.495 128.532 347.021 129.444C347.546 130.355 348.297 131.069 349.272 131.587C350.247 132.093 351.511 132.273 353.065 132.129C354.719 131.96 356.119 131.527 357.266 130.83C358.412 130.121 359.338 129.247 360.045 128.207C360.767 127.165 361.302 126.038 361.65 124.826C362.012 123.612 362.222 122.41 362.279 121.222Z" fill="white"/>
<path d="M383.775 120.579L375.309 121.612L375.567 118.741L383.534 117.771C384.894 117.602 386.114 117.258 387.195 116.738C388.291 116.216 389.16 115.53 389.803 114.679C390.46 113.826 390.802 112.801 390.829 111.604C390.862 110.575 390.63 109.724 390.135 109.051C389.652 108.363 388.958 107.871 388.054 107.573C387.15 107.275 386.088 107.184 384.869 107.299L377.401 108.208L375.409 131.924L371.307 132.433L373.555 105.828L384.625 104.473C386.51 104.275 388.222 104.394 389.761 104.83C391.312 105.252 392.55 105.984 393.474 107.027C394.398 108.069 394.875 109.415 394.904 111.062C394.945 112.913 394.468 114.503 393.474 115.832C392.493 117.159 391.149 118.218 389.441 119.009C387.747 119.797 385.859 120.321 383.775 120.579Z" fill="white"/>
<path d="M423.296 111.987L423.239 113.639C423.148 115.266 422.821 116.879 422.257 118.48C421.708 120.079 420.901 121.553 419.835 122.903C418.77 124.253 417.434 125.377 415.828 126.275C414.221 127.174 412.323 127.741 410.134 127.976C408.046 128.199 406.254 128.03 404.759 127.468C403.276 126.892 402.069 126.048 401.136 124.934C400.218 123.819 399.544 122.546 399.116 121.117C398.701 119.686 398.518 118.22 398.565 116.719L398.645 115.064C398.721 113.439 399.041 111.833 399.606 110.244C400.185 108.641 401.006 107.165 402.072 105.815C403.152 104.464 404.495 103.339 406.102 102.441C407.707 101.53 409.589 100.959 411.75 100.727C413.866 100.501 415.665 100.669 417.146 101.233C418.642 101.794 419.849 102.633 420.767 103.749C421.685 104.864 422.344 106.138 422.744 107.571C423.158 109.003 423.342 110.474 423.296 111.987ZM419.183 114.161L419.253 112.434C419.286 111.406 419.212 110.348 419.032 109.261C418.852 108.175 418.5 107.182 417.976 106.283C417.466 105.37 416.724 104.666 415.751 104.172C414.778 103.678 413.5 103.505 411.917 103.653C410.307 103.817 408.929 104.253 407.783 104.962C406.636 105.659 405.695 106.535 404.961 107.59C404.239 108.632 403.696 109.754 403.332 110.957C402.968 112.159 402.756 113.342 402.696 114.507L402.626 116.233C402.59 117.238 402.663 118.29 402.844 119.388C403.039 120.473 403.399 121.471 403.924 122.382C404.45 123.293 405.2 124.008 406.176 124.526C407.15 125.032 408.414 125.212 409.968 125.068C411.622 124.899 413.023 124.466 414.17 123.769C415.315 123.06 416.242 122.186 416.949 121.146C417.671 120.104 418.206 118.977 418.553 117.765C418.916 116.55 419.126 115.349 419.183 114.161Z" fill="white"/>
<path d="M451.864 119.598L451.606 122.468L428.384 125.35L428.642 122.479L451.864 119.598ZM429.315 122.396L428.509 131.807L424.472 132.308L425.235 122.902L429.315 122.396ZM455.401 119.159L454.571 128.555L450.513 129.059L451.299 119.668L455.401 119.159ZM449.882 96.357L449.626 99.2454L436.171 100.915L436.426 98.0267L449.882 96.357ZM453.376 95.9234L451.128 122.527L447.048 123.034L449.296 96.4297L453.376 95.9234ZM435.016 98.2017L439.161 97.6873L437.577 108.461C437.48 109.208 437.342 110.105 437.165 111.152C437 112.185 436.771 113.292 436.478 114.473C436.185 115.655 435.819 116.833 435.378 118.009C434.936 119.173 434.389 120.265 433.738 121.286C433.087 122.307 432.315 123.181 431.421 123.906C430.526 124.62 429.492 125.104 428.319 125.358L426.192 125.622L426.32 122.767L427.648 122.639C428.648 121.707 429.492 120.698 430.179 119.613C430.864 118.515 431.428 117.378 431.868 116.203C432.307 115.015 432.649 113.816 432.895 112.604C433.153 111.379 433.354 110.172 433.5 108.985L435.016 98.2017Z" fill="white"/>
<path d="M473.654 95.9384L461.567 121.232L457.205 121.773L471.15 93.7178L473.95 93.3704L473.654 95.9384ZM480.188 118.922L471.977 95.7486L472.127 93.5966L474.731 93.2734L484.203 118.423L480.188 118.922ZM480.441 109.145L480.185 112.033L462.932 114.174L463.188 111.286L480.441 109.145Z" fill="white"/>
</svg>
